/* XPM */
static char *coins2_removebg_preview1674586577[] = {
/* columns rows colors chars-per-pixel */
"50 50 228 2 ",
"   c #010101",
".  c #0B0100",
"X  c #02010A",
"o  c #130100",
"O  c #1B0100",
"+  c #1C0B00",
"@  c #100800",
"#  c #1B1502",
"$  c #230D00",
"%  c #251300",
"&  c #2D1400",
"*  c #2D1B00",
"=  c #351A00",
"-  c #3B2501",
";  c #382800",
":  c #462D00",
">  c #4B3703",
",  c #5C3900",
"<  c #543708",
"1  c #4A3613",
"2  c #594200",
"3  c #554412",
"4  c #6A5716",
"5  c #755C14",
"6  c #6E5105",
"7  c #7A661D",
"8  c #6F5522",
"9  c #6F5D35",
"0  c #674D2A",
"q  c #75633F",
"w  c #535236",
"e  c #6D6747",
"r  c #886612",
"t  c #94721B",
"y  c #B97301",
"u  c #9F7A21",
"i  c #98782B",
"p  c #8B7431",
"a  c #936C28",
"s  c #AA7E37",
"d  c #C17C07",
"f  c #8D7B53",
"g  c #BF8406",
"h  c #9A8222",
"j  c #B88826",
"k  c #B88F3D",
"l  c #A7913E",
"z  c #B18E2E",
"x  c #C28700",
"c  c #D18E01",
"v  c #D48919",
"b  c #D48E15",
"n  c #DC9415",
"m  c #DB9319",
"M  c #D89919",
"N  c #D0920A",
"B  c #E49B0F",
"V  c #E3991A",
"C  c #DDA01B",
"Z  c #DBA111",
"A  c #E4A413",
"S  c #E9A41D",
"D  c #EBAD1E",
"F  c #E4A818",
"G  c #F1AF1D",
"H  c #F1A819",
"J  c #EBBC1C",
"K  c #EAB51A",
"L  c #F3B51B",
"P  c #DD9E25",
"I  c #D99926",
"U  c #C99530",
"Y  c #E49C24",
"T  c #EC9B25",
"R  c #DDAD27",
"E  c #D9A734",
"W  c #D9B034",
"Q  c #DDB538",
"!  c #EDA32C",
"~  c #EAA927",
"^  c #F1AE27",
"/  c #EBB325",
"(  c #ECB42D",
")  c #EBBD2C",
"_  c #E6B628",
"`  c #F3B323",
"'  c #F8B427",
"]  c #F5BC25",
"[  c #F2B52B",
"{  c #F3BD2C",
"}  c #FBBC2B",
"|  c #F8B825",
" . c #E4A532",
".. c #E4AC34",
"X. c #ECAD33",
"o. c #E5A936",
"O. c #F4AD37",
"+. c #F1AA3E",
"@. c #ECB43B",
"#. c #E7BA3D",
"$. c #E8B736",
"%. c #F2B434",
"&. c #F4BC33",
"*. c #FBBC35",
"=. c #F4BD3B",
"-. c #F9BD3C",
";. c #F7B535",
":. c #FBCF1A",
">. c #F7CD17",
",. c #FBD31A",
"<. c #F9D016",
"1. c #EFC221",
"2. c #EBC32E",
"3. c #F6C626",
"4. c #FDCF24",
"5. c #F5C32B",
"6. c #FBC828",
"7. c #F6D323",
"8. c #FED924",
"9. c #FDD42A",
"0. c #FAD022",
"q. c #EFC233",
"w. c #F5C233",
"e. c #FEC434",
"r. c #F6CA32",
"t. c #FBCA33",
"y. c #F5C13B",
"u. c #FDC63B",
"i. c #FDCB3A",
"p. c #F7D531",
"a. c #FED433",
"s. c #FFDB3A",
"d. c #FDD33C",
"f. c #958447",
"g. c #AB964A",
"h. c #BA934E",
"j. c #A79358",
"k. c #B88D49",
"l. c #A18F61",
"z. c #BEA169",
"x. c #CD9A41",
"c. c #DBAE46",
"v. c #CDB14D",
"b. c #DEB547",
"n. c #D4BB56",
"m. c #DBB85E",
"M. c #D0A959",
"N. c #EBB543",
"B. c #EAB249",
"V. c #E9BD4D",
"C. c #E6B946",
"Z. c #FCBC41",
"A. c #F6B947",
"S. c #E1AE55",
"D. c #E8B957",
"F. c #F5BE5C",
"G. c #F6BE52",
"H. c #E8A940",
"J. c #C6B16E",
"K. c #D1B164",
"L. c #C8AA64",
"P. c #E0BF72",
"I. c #EEC442",
"U. c #ECC648",
"Y. c #F4C343",
"T. c #FBC542",
"R. c #F3C944",
"E. c #FDCC42",
"W. c #FEC54B",
"Q. c #F4CC4C",
"!. c #FECB4D",
"~. c #F1C44F",
"^. c #FFD443",
"/. c #FEDC44",
"(. c #FED34B",
"). c #FEDA4B",
"_. c #F3D24E",
"`. c #EAC658",
"'. c #FFC351",
"]. c #F5CB54",
"[. c #FCCD54",
"{. c #F5C756",
"}. c #FCD454",
"|. c #FDDA51",
" X c #FDD25C",
".X c #FFDC5C",
"XX c #F3D254",
"oX c #FFE14A",
"OX c #FFE356",
"+X c #FFE25D",
"@X c #FFE85B",
"#X c #EBC866",
"$X c #F4CD63",
"%X c #FCCC63",
"&X c #F4CD6F",
"*X c #F8C967",
"=X c #EED76B",
"-X c #FFD464",
";X c #FDDB65",
":X c #FFDB6C",
">X c #F6D464",
",X c #ECC672",
"<X c #E7C277",
"1X c #EED372",
"2X c #ECD379",
"3X c #FED473",
"4X c #FBD975",
"5X c #F3C973",
"6X c #FFE464",
"7X c #FFEA67",
"8X c #FFE26C",
"9X c #FFE373",
"0X c #FFE47A",
"qX c #FFEA7A",
"wX c #FFE873",
"eX c #FEDE8C",
"rX c #FAD891",
"tX c #FFE384",
"yX c #FDED8C",
"uX c #FFEF82",
"iX c #FFF08C",
"pX c #FEEC93",
"aX c #FFF395",
"sX c #F4EBA4",
"dX c #FFE6A3",
"fX c #FFF3A5",
"gX c #FAF5AF",
"hX c #FFFCB9",
/* pixels */
"                                                                                                    ",
"                                                                                                    ",
"                                              X X X   X                                             ",
"                        X                                                                           ",
"                                  .     .   .                                                       ",
"                                  X             .                                                   ",
"                                                                                                    ",
"                                              .                                                     ",
"                                                    X       X                                       ",
"                                                        X X X X                                     ",
"                            X     X .                   X . @                                       ",
"                                  .                         . .                                     ",
"                              . X     .     . X   X X                                               ",
"    X                     .     @ . . . o . . o o o . .   . .                                       ",
"                              . o % > 6 r t u u r 6 > * @     .                                     ",
"X                       @   # 3 l v.#X#X`.~.[.}.Y.~.D.m.g.4 * . .                                   ",
"X X       .               4 n.;XQ.I.#.Q E C.Q ) ) y.I.#.C.C.`.i + . .   .                           ",
"X       .         @   + g.=XQ.i.2.d.(. X:X:X;X^.d.a.r./.^.) Y.$XK.- . . .                   X       ",
"X X X         X     . J.9XR.&.( ^..X8XwX8X XE.5.6.4.4.a.oX@X_.Q `.P.- . .       @ X       X         ",
"              X   . f.pX X_ A i.(.}.8XwX].Q.#.y.s.4.:.7./.OX+X].$.*Xz..         X X       X         ",
"            X     # fXaX%Xm } e.E.).;X}.R.|.Q.^.^.a.,.,.p./.7X;XO.N.,X< @ X     X X .               ",
"                X w sX1XD.I *.| i.(..X7X_.Q W N.(./.:.>.9.oX+X6XT.;.3Xa @ @ X     X X     .         ",
"              @   e gXyX3XI } 6.w.}.-X:X7X;XN.R ~ *.a.7.7.p.).6Xu.O.A.D.k %     X         .         ",
"                  e hXpXtX#./ ] i.R.].:X9XqXA.!.Z.Y t.3.8.7.).OX} ' O.P {.m.;     X X               ",
"  X             . q fXiXiX>X_ ) 3.r.!. X;X:XW.!.[.m { a.<.,.s.r.K ` S ~ [ {.L.O     X X             ",
"  .       X   @ o 0 2XqXiXuXQ.) 1.3.^.)._.].....o.Z.(.a.8.>.1.K ] G B ^ ' @.5X8 @                   ",
".           X   . - #XC.0X0X:X}.5.) t.d.|.+X+X6X6X7X|.i.6.K r.(.~ c L G ^ A.%Xh..                   ",
".             X . O l U.b.`.4X8X).6.t.5.i.^.(.|.|.R.&.&.5.{ =.C N A } M -.O.%XM.O .     X           ",
"X     X     X X . . : ,X~.].V.].W.*.i.e.e.e.i.E.&.&.;.' [ M m V B ' A N &./ Z.x.O .       X         ",
".   X X     . X   @ . 5 4X>X XN.( ^ ` G G D ( $.E W X.P Y T T V V B x ..5.D *.j O         X X       ",
"                      . 1 <X XE.r.3.H H L ( V.5XeX,X*XG.O.! ! ! v y I T.[ / S U #             X     ",
"      .           X     . = b.w.2.6.L L { R.4XaXfXtX&XG.O.T v y d  .W.-.*.V A c.+           X       ",
"        X X       X X X # o h _.R ) [ &.$.#. X8X0X$XV.W M x M ~ ] } Z.G.T b u.j o                   ",
"          X         X X . @ ; n.#.=.T.y.T.E.=.y.@.A.Z.Y.&.=.u.&.] | ! v v E S., o   X         .     ",
"        X           X X . . . 5 `.}.[.=.&.[ ^ e.u.w.&.T.=.@.o.o.Y m n ~ M V.a o .   X X     X X X   ",
"                        X   . @ 7 1X:XU.y.' G A F C R #.V.B.B.H.+.o.o.I b.5 o @               X     ",
"                  @           .   3 v.$Xi.t.L J 1.2.XXqXiXtX3XF.A.B.S.k.< O   X         X           ",
"@         @         @ @   X X X .     2 z Q y.R.U.U.1XaXhXdXrX<XM.s , O . . @                       ",
"          X       @         X X X .   . . $ < 4 p f.g.j.j.f 9 1 & o o . .                           ",
"    X X X       X         X X X .     .       .   . . @ .   . . . o X             X     @           ",
"      X           X               .   .       . . . . . . . @ X                   @ @               ",
"    X X     .                                   X .                         X X       X X           ",
"    X       .   @   X   .       .                 X                         X             X X       ",
"                  X X                 X                         X                           X X     ",
"                      X     X     X X                             .         X X                     ",
"                                    X   X                                   X       X               ",
"                                X                         X                             X           ",
".           X                                             X X X X                                   ",
"                                                                                                    ",
"                                                                                                    "
};
