/* XPM */
static char *wall1674586578[] = {
/* columns rows colors chars-per-pixel */
"50 50 117 2 ",
"   c #3B1610",
".  c #421005",
"X  c #44150D",
"o  c #4B1B0E",
"O  c #551C0F",
"+  c #471A10",
"@  c #4C1D13",
"#  c #441E19",
"$  c #4D1E19",
"%  c #531E13",
"&  c #581E10",
"*  c #521E19",
"=  c #53200F",
"-  c #4E2215",
";  c #4D231A",
":  c #542315",
">  c #5B2315",
",  c #5D2B17",
"<  c #54241B",
"1  c #5C251B",
"2  c #562A1D",
"3  c #5B2A1D",
"4  c #632615",
"5  c #632916",
"6  c #61261B",
"7  c #6B251B",
"8  c #622B1D",
"9  c #6B2B1D",
"0  c #63301F",
"q  c #4D2621",
"w  c #4F2A24",
"e  c #562621",
"r  c #592721",
"t  c #562A23",
"y  c #5C2C23",
"u  c #562D29",
"i  c #5D2E29",
"p  c #5B3124",
"a  c #5E312B",
"s  c #642D23",
"d  c #6B2D23",
"f  c #622F28",
"g  c #722E23",
"h  c #643225",
"j  c #6A3325",
"k  c #6C3925",
"l  c #64332B",
"z  c #6C352A",
"x  c #63392B",
"c  c #6C392C",
"v  c #733124",
"b  c #7A3525",
"n  c #713A26",
"m  c #7A3925",
"M  c #73342B",
"N  c #7A352B",
"B  c #723A2D",
"V  c #7A3A2C",
"C  c #643531",
"Z  c #6D3530",
"A  c #663A32",
"S  c #6C3B33",
"D  c #6D3E39",
"F  c #743631",
"G  c #783731",
"H  c #743D33",
"J  c #7B3C33",
"K  c #713F39",
"L  c #7B3E39",
"P  c #7B412E",
"I  c #6D4035",
"U  c #6D413A",
"Y  c #744135",
"T  c #7A4234",
"R  c #74433B",
"E  c #7B453C",
"W  c #73493D",
"Q  c #7C493E",
"!  c #754641",
"~  c #7A4741",
"^  c #764943",
"/  c #7C4B43",
"(  c #754F49",
")  c #7D4E49",
"_  c #7F5046",
"`  c #7C524C",
"'  c #7D5650",
"]  c #7F5851",
"[  c #803A2E",
"{  c #823E33",
"}  c #804036",
"|  c #82443C",
" . c #814B3D",
".. c #804740",
"X. c #824C44",
"o. c #884C44",
"O. c #834F49",
"+. c #884F48",
"@. c #855146",
"#. c #885345",
"$. c #84534B",
"%. c #89554D",
"&. c #87594F",
"*. c #89594F",
"=. c #845651",
"-. c #895650",
";. c #855953",
":. c #8C5B53",
">. c #865F58",
",. c #8C5C59",
"<. c #905750",
"1. c #915D54",
"2. c #905E5A",
"3. c #8B605B",
"4. c #926057",
"5. c #93625A",
"6. c #976661",
/* pixels */
"C a u A u # C C C C D C i D K D D D K u K D ! U ! D i a D S C S K h f j F z d s 1 s d d d j 9 6 1 y ",
";.>.=.3.) D =.>.,.,.,.) ! ~ =.O.) ) ~ i ! ! ^ ! ) ! U K ) ! D ! D c z K E R Y H h z B B B H V z f j ",
";.>.,.2.) K =.=.,.,.2.=.K ! O.~ ~ ) ~ C U U ! K D D C C K C a Z A A S U R Y Y Q p h c c k c c h s p ",
"u t i C u $ u u e r i r $ * e $ * i * # * * $ $ e e e e i e $ t @ @ - < - o @ : = : > : : > : % % : ",
"^ S W _ ~ ) ~ O.S R O.O.X.O.O.Z ! =.O.O.O.O.K D K ! ! K ! S C K L L E L F M M J v M v d 9 g g g 9 v ",
"-.R ) &.,.2.-.,.~ / -.:.<.2.-.K ~ ,.=.=.O.=.Z C O.$.O.) ) R K K R Y G L F z M H | | T P N J J J V N ",
"$.S / / @.-.O.O.Z S R L H L R f C ! Z Z C K r r f f y y f r * r p p p p i 2 y h 2 p 3 3 3 p 0 , , 5 ",
"h + r r 2 f r f y f z f r f z f i F r i r Z i C i f y y l f y f t 2 ; t 2 2 2 y : : 3 3 2 3 , : , , ",
"&.&.;.4._ x *.4.@.5.4.:.F O.O.@.%.@.%.S @.O.X.@.$.O.K z W @./ ~ | G H L E ..L { M M V V N J J M b [ ",
"5.&.4.4.3.U &.:.&.4.5.*.R $.<.%.-.@.%.K ) X.W / @.) H S ~ / W | L H F L { J J J d M M V N V N b N [ ",
"U t I I I w a A i f c r * y C e r s s < 1 z * y l s < < s < % r 2 - $ ; * @ - @ @ * , : 1 2 : = = > ",
"U ; U A U U I U a x / x S C K r c R R E K X.h z E K F H K l s H S x A S l a p x h c x c c c c z k 9 ",
"] x ] ] 3.] ' ] U ^ ,.) =.) O.C @.:.1.4.@.:.z c #.X.E X.+.H c Q ~ E ....T F F R z M B z M N J V V m ",
"] U ] ] ] ' ' ] A ! =.( ( ( ^ i ~ X.#. .Q X.h z Q E Y E E H z H F H G H F d z M v M M v M M M M N n ",
"w # w w u   w w q w u u # u u $ < > y % s s < 1 3 s 1 < s 1 % < : % % : % @ O % O > 1 > , 6 > > & & ",
"( ( ( ] ] x ] ( ( ` ( ^ i ) $.` +.Q +.z .. .o.#.E X.E H E Q E Y R D U R Y H H Y h c H Y Y T B z n B ",
";.>.,.,.=.C =.) O.=.=.=.D ~ O.-.@.+.:.z o.-.<.+.+.+...L ..o...E E H K E Q Q E E c V Y T T T V n n M ",
"^ U ^ ( ^ i K D D K K Z r D K L z z F * z F d f s f 6 * s s r s 1 < > 1 8 1 1 6 , 6 5 8 8 9 9 5 d 9 ",
"a # a i a t u i $ e C r r i C * K H H F H R s f F Z f f F f s Z M z j M j f d g d j g d 9 v v 9 7 7 ",
"=.C ' ) =.=.$.$.C ~ 6.-.2.,.,.Z X.$.+.:.#.:.F E -.+.o.O.+.K Z | X.~ ..Q J G H T J H V M j b M v J V ",
"$.C $.) -.=.-.-.C ! 2.-.,.-.,.Z O.-.$.1.%.4.K / -.@.X.O.O.K F ~ ^ ! ^ W I I I U Y Y I c x c Y I z j ",
"a # a u a r i C e i Z i r f Z * r s f t 3 l : 3 r 2 * < r % + 2 $ $ ; ; - + + - + - % @ : : 1 : , > ",
"R D W R K f ~ ! ~ ..~ L z H ..~ R ~ X.l S W Y R Y R c x I Y S K K Z Z F F S F G d M F G V J J N N N ",
"&.-.;.-.$.C ,.-.-.,.-.2.K O.+.-.$.%.:.h Y / ) / W Q D x Y R I F F F Z L R J G G z G G J J J V M N N ",
"R _ ! W @.y W ~ E ..X.R z H ..R ~ R Q y S S S K K l a l x h h C C p a A a a x p : p x h h p p , h j ",
"2 : 2 3 h @ f y * r j f < s f * y y h : y s < 2 f 2 < 3 3 < < y p : 2 t 2 ; - @ 2 p h h h h h h h h ",
"~ p Q Q @./ @./ f S O.#.X.O...Z Q ) @.) X.&.S R X.R R Q E K R / +.} | | I B V M B V V M n V m N J { ",
"$.y $.&.$.%.*.X.z G O.%.+.+.X.F @.%.%.%.@.:.H K / E E E E H R Q o.| | | B B { { J { { [ m N [ [ v M ",
"h . S x y y h s > 2 d h s f d < f Z f l s H % * f s 1 r 2 * 1 s 0 1 0 h , = 8 5 & , 5 5 5 5 5 , s s ",
"S 3 E H z 3 l c z c F l s j H j z z f s j E f Z F f f z z f s z z 8 0 k 8 0 k 0 9 n P P T } P P z Z ",
"Q Q _ Q / h Q X...X.o.L M G X.| ~ L E M ~ +.~ o.o.H F H R L G L B j n P m P } m 4 g m m m m b b d z ",
"W _ R Y Q y E Q ~ X.O.R z K X.....L | s ..o.| ..O.G z J E R G H V v M T V V P m g m V V m N b g j g ",
"h X i < i r t l + i < e e < l ; 2 8 1 1 j z 3 1 h 1 , 1 8 > : 8 > > 8 9 > > 4 & > > , & 4 8 8 6 8 8 ",
"^ t U S ^ ! ! ^ e U D U U D W a c T Y Y Q T z j B B Y E Y c j Y B J  .T z j V B n B n z z M V B V B ",
"^ i ^ ^ ;.' =.) t ! ^ ^ ^ ! ! l T #.#.X. .Q Y n Y T  .#.Q B B  . . .X. .M k T  .T T H M n H H B B H ",
"C ; a C D a D A ; l C C C C C t j Y H n P c 0 0 h j c B z , 0 c j j j j 8 1 d j f d j 8 s j j j j j ",
"i ; i i i @ f i t l C r t l C y 3 k h 1 8 , 1 0 0 8 , 3 8 , 1 0 9 > 1 8 6 6 8 8 1 8 d s d d s 8 j s ",
"R D R R D e R R R ! ^ x l ! ^ ! T Q Y k Y P Y T  .c z k H B c P Y j j T T J H B j z B B n c j 8 j j ",
"U D D R U t ~ W ! ! ) C x _ ~ / Q #.E B Q Q T Q  .B z Y T Y Y Y T j j T Y V H B 8 j j n j M z 8 j d ",
"r < < t y X x i i i D < < C y x 8 j 1 , h k h h h , > 8 h h 8 8 8 O & 8 , O > 1 & , 8 1 8 s 8 8 8 s ",
"S a x Y K S Y I : S h l c S I @ h c c c B k 8 8 c z h B n h 0 c n z B B j 8 j j B V n j j z V H F B ",
"E l z R R R W R y Q W / _ _ / 1 B T Y T Q T z h T B Y Q Y j h B T B T T j d B H J Y Y M j j n z M M ",
"Y x z K Y S Y D : S S H K Y c @ Y Y B B T P h s Y k n T H j 8 c F z M z 8 1 j B s j f 8 8 j z j 8 9 ",
"f 2 3 l y 3 s y r l h < 2 h l < j h 1 , z h , > 8 : > 0 h 1 , h 8 > , 6 & > 1 8 , 6 d 0 j j z j d s ",
"Y c Y E c h c D E E D y s S Y Y T Y z h Y T B Y Y h 1 z B B c Y B s j n n B F z s z B H V B z d M V ",
"R S E ~ S h S Y Y S Y h f H S Y E T c k T T Y T  .n 0 c T H Y T n s j H J J Y n , d B n c B j j z v ",
"y : 2 h 1 : < 3 2 2 z 3 3 x 3 3 1 8 , > , 8 , 1 z , > 8 s , 1 8 , % > 8 1 , 8 1 > 6 s h j j z j 9 g ",
"S 3 s c c c c c 8 8 B h s B 8 h 5 j h j k z 8 8 j j j B z 8 8 z j 9 M M d 8 j B z V V M j c V V m b ",
"J 1 z J T T V J 9 j V T n J m 8 9 m m B T m j 9 V V M V V 9 8 N v N b V g 9 J M M M V d 9 N g b g g ",
"J 8 j H J T B T 9 j V J B V m 7 9 m m P P V 9 9 V V v B V d 9 V b [ b m g 7 V M M M V 9 9 [ g b g b "
};
