/* XPM */
static char *Screen_Shot_2023_02_05_at_4_45_29_PM1675612179[] = {
/* columns rows colors chars-per-pixel */
"50 50 73 1 ",
"  c #0C0E13",
". c #0E1015",
"X c #111417",
"o c #121718",
"O c #151B1A",
"+ c #181F1C",
"@ c #1A221E",
"# c #1D2720",
"$ c #1E2921",
"% c #202D23",
"& c #243326",
"* c #273728",
"= c #2A3C2A",
"- c #2E422D",
"; c #30452F",
": c #354C32",
"> c #394835",
", c #375034",
"< c #3A5536",
"1 c #3C5738",
"2 c #3E5A39",
"3 c #59423E",
"4 c #405E3B",
"5 c #44643E",
"6 c #5C4643",
"7 c #5E4945",
"8 c #5D5246",
"9 c #5A5B46",
"0 c #604947",
"q c #634D4B",
"w c #65514E",
"e c #68504F",
"r c #675750",
"t c #6A5353",
"y c #665E51",
"u c #6A5B54",
"i c #735D5C",
"p c #466740",
"a c #476840",
"s c #496C42",
"d c #536444",
"f c #5D6349",
"g c #5E6C4D",
"h c #4E7345",
"j c #507647",
"k c #517748",
"l c #5C744B",
"z c #547C4A",
"x c #5C7E4E",
"c c #5F7D50",
"v c #606C4E",
"b c #646250",
"n c #6B6356",
"m c #656C53",
"M c #70645B",
"N c #617350",
"B c #627C52",
"V c #6B7659",
"C c #57814C",
"Z c #5A854E",
"A c #5B8750",
"S c #5E8B52",
"D c #638555",
"F c #618D54",
"G c #668A58",
"H c #639356",
"J c #669658",
"K c #679959",
"L c #699C5C",
"P c #6CA15F",
"I c #6EA461",
"U c #71A663",
"Y c #74A967",
/* pixels */
"....... ................... ......................",
"..................................................",
"..................................................",
"..................................................",
".................  ...............................",
". ............oO&==+   .  OOoooOoo................",
".............+4skzzs>$+#+-skhkkkja% ..............",
"............+42*++#<AACCZSF4,hGLLJk# .............",
"...........o4a#&#...,FLILz=O O-ZHkF:X ............",
"...........%A,$ZsO. OpKLZ&... .,a@1<X.............",
".......... &Az1AhO ..*SLpX. .. oO oO   ...........",
"...........opSHS=  . OkJ-  o$$+. XX  X............",
"...........X*12-+**# +kL4oo1AZ,=55* ..............",
"...........#hzhp4AFk&;GSz>=AL5*zKK5X .............",
"...........X#=zJHHFSd9Mw8MgGHssJa15@   ...........",
"...........#1-;FSkgrw6qtttwyyVHS-;z;@$X...........",
"......  #42:jSzGVwqqeeeq66q60imzsFa-h<X  ......   ",
"......$-=ZSHZHGbqqqweeeqt6qq6qtgSJhj<-@ ...... .  ",
"      %jppSHHSy7tq66e773q06qtitwNHH5;k%  .   . .  ",
" ..  ..,SskHHbtttq6qqe63qe0q7ttquBHjzjO .  . .    ",
".. . . %AFAHDr6etqqq6q7te77q76tqenFFJso    .   .  ",
"     . $AHHHB8qeq7qqqt7ie7q6ttw63yFHJjo  . . . .  ",
" ..    @hJHJGn66q66qtq77067q76qq7fJHLjX ..  ..    ",
"   .. ..aHJHHcrqt6666t7606qt636q7xLHJ4X    .   .  ",
". .   ..aHHHIHmtqet76wt6706300eqlJLJH;     X      ",
".   . ..aHFLILGb6w66t7t6q000qtq9HLLHJ=      X     ",
"  ... ..aLHHLIJc9q66qq7q36q06t9SLLHJJ-  .     X   ",
" .    ..1LLJFJLLHB77t67w667ttVGLJFJLJ;  .         ",
" ..   . *SPLJHHLLLS9776q6t7bcJHHHLLIJ;   .        ",
"   ..   X2LIILHHJLLGg6qq3rlSKHHKLPULH* ..  . XX   ",
".   . .  *SPIIPLHHHJHDv68lHHHJLIUUULzO   ..       ",
". .   .  X1SLIIILLHHJJS9cHHHLIIUYUIL2X .  .       ",
"   .      @5KPIUUIPLKHHSHHKLUUYYUPPZ&      X  X   ",
" .         <HJPPUUUILKSHKLPPUUYUUPS=              ",
"  .        @5HJPPUUUILKKPUUPPUPLKC=               ",
"   .        ;ZHHKLPPIILPUPPLLPLH5$                ",
"            X&5ZHHKLPUIUPPHHKHC;O              X  ",
"              X&5ZSHKPPPLKHHz,@                   ",
"                X$:ZHHKKHHH5$                     ",
"                X%%zLHHHHHKz2@                    ",
"                 ,zKLHSHKHKS:                     ",
"                  =5SKHHHKS2                      ",
"                    =5HH5<*X                      ",
"                     $;=X                         ",
"                                                  ",
"                                                  ",
"                                                  ",
"                                                  ",
"                                                  ",
"                                                  "
};
