/* XPM */
static char *Screen_Shot_2023_02_05_at_4_44_31_PM1675612177[] = {
/* columns rows colors chars-per-pixel */
"50 50 123 2 ",
"   c #0C0E13",
".  c #0E1015",
"X  c #0F1018",
"o  c #101516",
"O  c #121917",
"+  c #13131C",
"@  c #141D18",
"#  c #16221A",
"$  c #18271B",
"%  c #1A2B1C",
"&  c #1E331F",
"*  c #1F381E",
"=  c #161521",
"-  c #181724",
";  c #191825",
":  c #1D1A2B",
">  c #201D2F",
",  c #221E32",
"<  c #1F3720",
"1  c #223C22",
"2  c #26332F",
"3  c #272138",
"4  c #29233C",
"5  c #264424",
"6  c #284726",
"7  c #274825",
"8  c #294A27",
"9  c #2B4D29",
"0  c #2E552A",
"q  c #30572C",
"w  c #335C2E",
"e  c #355F30",
"r  c #35642F",
"t  c #37682F",
"y  c #366230",
"u  c #386732",
"i  c #376930",
"p  c #3A6B34",
"a  c #417639",
"s  c #447B3C",
"d  c #2F2943",
"f  c #312946",
"g  c #342B4A",
"h  c #382F51",
"j  c #3C3256",
"k  c #3F345A",
"l  c #41355D",
"z  c #4B3C6A",
"x  c #426147",
"c  c #4B7F44",
"v  c #50695B",
"b  c #554479",
"n  c #5A487E",
"m  c #5F5D7E",
"M  c #566B67",
"N  c #66757B",
"B  c #48803F",
"V  c #4B8542",
"C  c #4D8944",
"Z  c #4E8448",
"A  c #508D47",
"S  c #518C49",
"D  c #54934B",
"F  c #58984F",
"G  c #579350",
"H  c #5A9B51",
"J  c #5EA255",
"K  c #61A557",
"L  c #61A658",
"P  c #65AA5B",
"I  c #5D4B83",
"U  c #604E86",
"Y  c #624F8A",
"T  c #66528E",
"R  c #6B5596",
"E  c #6D5798",
"W  c #6E5999",
"Q  c #747295",
"!  c #787898",
"~  c #755DA2",
"^  c #785FA7",
"/  c #795FAA",
"(  c #7B63AB",
")  c #807FA3",
"_  c #847CAB",
"`  c #8067B2",
"'  c #846BB5",
"]  c #856AB9",
"[  c #896CBF",
"{  c #8970BA",
"}  c #8B6DC1",
"|  c #9175C5",
" . c #927BC3",
".. c #9575CE",
"X. c #9679CB",
"o. c #997CCE",
"O. c #9778D0",
"+. c #9B7CD4",
"@. c #9E7FD8",
"#. c #9F81D6",
"$. c #9F81D8",
"%. c #A183D7",
"&. c #A284DA",
"*. c #A689DD",
"=. c #A88ADF",
"-. c #AB8DE1",
";. c #AE91E4",
":. c #B294E6",
">. c #B396E9",
",. c #B699EA",
"<. c #BA9DED",
"1. c #BC9FF0",
"2. c #BDA0EF",
"3. c #BEA2F1",
"4. c #C1A5F3",
"5. c #C5AAF5",
"6. c #C8AEF6",
"7. c #CAAFF8",
"8. c #CBB1F7",
"9. c #CDB4F8",
"0. c #D3BCFA",
"q. c #D6C1FB",
"w. c #DAC6FB",
/* pixels */
". . X . X . X . . X . . X . . . . . o . o . . . . . . . . . . o . . X o . . . o . + . . . . . . . . ",
". o o X . o . . . . . o X . . o . . . . . . . . . o o . . . . . o X . . . . . . . . . . . . . o . . ",
"o o X X . o X o X o X o o . . . . . . . . . . . + . . . . . . + . . . . . o . . . . . . o . . X . . ",
"      o .   . .   o   . . . . . . . o . . . . . X . . . . . . . . . . . . . . . . o . . . . . . o . ",
". . . . . . .   . . . . o   o   . . . . . . . . . . . . . . . . . . . . . . . . . . . . . . . . . . ",
". . .   . . . . . . .     X   X . . X . . . . . . . . . . . . . . . .   . . . . . . X . . .   . . . ",
"  . . . . . . .   . X   X . o   . . X . . . . . . . . . . . . . . .   . .   . . . . . . . .   . . . ",
". . . . .   . . . . . . o O o @ o . .   . .   . .   . . . o O O O . . . . . . . . . . . . . . . . . ",
".   X . . . . . o O O % 0 i p p q & O . . . . . . . o @ 1 w a u u 8 $ o o o . . . . . . .   . . . . ",
". . . . o @ & 6 w w q a D J K H C u 0 < O . . . . O 5 r a D H J F D u 0 r q 5 % O . . . . . .   . . ",
". .   @ 6 u s a s a p D P P K C a a s s q $ o X @ q A D a a D L P L B p s s s a w & o . .   . . . . ",
". . o 1 s B q & % 5 a F L D B p a S F F A y $ @ w A L P F a a C F L A u * % 1 p B a $   . X . . . . ",
"  . O q u 1 O   o 9 B F V u t t a A F H G s q 5 B K P P D a r r a S D a &   . # 9 p 5 . . . . X   . ",
". . @ % @ . . . o % q w 1 $ 7 t r a c Z Z c a u S G F D a r r * $ 6 e 8 @ . .   o $ % .   . .   . . ",
".   X   . . . . o o o o   . o * u v Q _ _ _ ! ) _ _ ) N M x 2     . o .   X . . . . . . . . . . .   ",
". . . . . . . .       .     + f m  .,.5.5.5.4.5.5.5.2.%.o.{ ` n d . .   . . . . . . . . .   . . . . ",
". . . . . . . . . .     + f R o.@.@.2.8.0.0.7.8.8.5.:.%.&.%.&.+.[ U 4 +     . . .   . . .   .       ",
"  . . .   . .   . .   > Y o.o.*.-.=.@.&.>.-.&.@.=.&.&.,.8.<.=.o.&.-.| T h ; . . . . . . . . . .     ",
". . . . . . . .   . f ~ &.>.+.@.@.;.=.X.+.*.:.*.@.&.-.2.0.0.4.@.@.:.:.;.%.U + . . .   . . . . .     ",
"      .     . . X l ] +.;.,.@.>.4.,.+.=.4.6.,.o.@.*.@.%.4.<.=.o.+.O.O.%.>.%.z +     .   .     .     ",
".     . .     . h [ +.&.;.+.+.=.-.*.O.,.0.0.2.=.2.5.=.@.:.&.=.&.*.;.;.%.@.;.] ,     X   .     X     ",
"  .         . , ' ,.=.+...o.*.=.-.=.O.-.6.9.9.6.5.>.+.%.+.=.3.&.%.<.<.;.o.+.+.U =       .     .     ",
"  . .     . + Y -.<.=.O.=.:.-.>.5.8.,.@.&.&.;.-.%.@.&.@.@.2.6.-.+.%.@.+.*.;.>.+.b + o .             ",
"    .       h O.-.+.=.+.-.4.>.+.=.7.0.4.=...@.;.:.<.5.>.@.=.6.6.,.&.@.O.+.@.;.>.o.h .     . .       ",
".   .   . X Y @.o.;.3.&.=.5.4.+.&.6.8.;.+.:.7.6.<.=.-.:.-.+.=.,.*.&.*...;.2.=.+.+.j     .     .     ",
".         > ' @.&.6.9.<.@.%.%.+.2.8.,.+.>.9.6.-.@.&.-.&.@.*.+.O.*.5.<.o.-.7.6.;.+.b X .     .       ",
"    . .   f @.%.o.,.4.4.>.;.>.4.0.6.&.@.4.4.&.-.<.>.<.4.;.O.O.O.:.9.9.:.@.=.,.<.*.~ + X   . .       ",
"  .       g X.o.@.+.@.@.@.&.=.4.0.6.=.@.3.:.O.,.4.*.@.5.8.-...@.@.=.5.7.>.@.O...+.~ +   .           ",
".         g +.@.=.<.3.2.<.:.+.+.>.<.;.o.>.4.-.o.&.+.%.6.0.8.-.+.-.&.@.;.*.@.;.+.*.~ + o .   . .     ",
"    . .   4 | o.+.>.9.5.-.&.+.O.@.@.@.+.+.2.6.<.-.:.4.0.w.0.;.+.<.5.>.o...@.;.&.@.~ +             o ",
".         > ^ >.=.+.<.:.O.:.=.+.=.3.3.&.X.@.:.5.9.6.4.5.8.3.+.=.7.0.>.+.+.+.&.+...z . .   . .   .   ",
".         . W <.>.+.<.;.+.2.5.>.+.-.6.2.@.@.O.-.5.-.%.@.&.&.+.<.0.9.;...*.<.5.:.} d       .     .   ",
"    .     . Y >.:.+.2.2.@.*.<.:.+.;.9.9.:.o.@.,.9.4.:.=.*.+.+.<.0.q.4.@.&.-.<.-.E =   .       .     ",
"  . .       3 ` *.O.:.7.4.&.@.*.,.0.w.q.2.+.-.7.4.=.@.%.%.@...*.6.q.5.&.O.&.>...f         .         ",
"              4 ] +.+.;.5.5.2.2.4.4.6.9.:.%.1.<.&.-.<.>.1.4.;...*.4.2.#.-.<.%.z X           .       ",
"      .         l [ @.+.%.;.=.@.%.@.%.*.o.&.,.+.:.6.4.#.;.7.:.o.%.%.%.%.<.&.U =               .     ",
"                . f ` +.+.+.=.>.<.2.:.=.@.+.-.O.;.<.,.+.&.,.#.*.,.+.&.<.:.E ;                       ",
"                    > T o.&.*.:.4.0.0.0.,.O.*.-.#.%.%.&.-.$.#.=.&.O.*.&.E ,                         ",
"                      + z | =.&.@.>.0.9.-.@.@.@.-.-.*.#.O.O.+.O.O.+.( j -                           ",
"                        + f T X.+.-.4.>.O.,.1.&.O...O.+.@.+.+...` z >                               ",
"                            X , k R ] ..| ;.>.@.@.&.-.+.} / n , =                                   ",
"                                    : f l I I n n U U l 4 =                                         ",
"                                                .                                                   ",
"                                                                                                    ",
"                                                                                                    ",
"                                                                                                    ",
"                                                                                                    ",
"                                                                                                    ",
"                                                                                                    ",
"                                                                                                    "
};
