/* XPM */
static char *Screen_Shot_2023_02_05_at_4_45_03_PM1675612178[] = {
/* columns rows colors chars-per-pixel */
"50 50 79 1 ",
"  c #0C0E13",
". c #0E1015",
"X c #0F1418",
"o c #131214",
"O c #1C1515",
"+ c #10161A",
"@ c #221716",
"# c #251917",
"$ c #2A1B17",
"% c #321E17",
"& c #341F18",
"* c #372018",
"= c #3B2119",
"- c #121E20",
"; c #142425",
": c #162A2A",
"> c #18302F",
", c #193533",
"< c #1B3A36",
"1 c #1C3D39",
"2 c #422419",
"3 c #4C281A",
"4 c #522B1B",
"5 c #5B2E1C",
"6 c #62311D",
"7 c #6E361E",
"8 c #73381E",
"9 c #7B3B1F",
"0 c #583220",
"q c #1E423D",
"w c #27423B",
"e c #1F4741",
"r c #214D46",
"t c #224F48",
"y c #23534B",
"u c #265C53",
"i c #29645A",
"p c #31675B",
"a c #2D6C61",
"s c #2F7165",
"d c #3A7264",
"f c #777254",
"g c #803D1F",
"h c #833F20",
"j c #8C4221",
"k c #914422",
"l c #984722",
"z c #9B4923",
"x c #A14B23",
"c c #A94E24",
"v c #AD5025",
"b c #A0572E",
"n c #B45225",
"m c #BD5626",
"M c #A96237",
"N c #AC683B",
"B c #C05726",
"V c #C35927",
"C c #CF5D27",
"Z c #C65A28",
"A c #CC5D28",
"S c #D25E27",
"D c #D35F29",
"F c #CD632E",
"G c #D66029",
"H c #DC632A",
"J c #E2662C",
"K c #E5692E",
"L c #E96A2E",
"P c #E76D31",
"I c #E96E31",
"U c #EB7234",
"Y c #EC7639",
"T c #ED7A3D",
"R c #ED7E41",
"E c #ED8246",
"W c #EE864A",
"Q c #EE894E",
"! c #EF8D54",
/* pixels */
"..........X.................X..X.................X",
"...XX....................................XX.......",
".............X....................................",
".................................X................",
"..................................................",
".............X-X..................................",
"...........X<yye-..................+-.............",
"..........:ratrue..................<r-............",
".........;usy->i<...............-,X;ur....o ......",
".........>asr+-<-...............+r:Xer+.. ........",
"... .....-usi<-   ..............+ry,rt+...........",
".........X;rait<;;:;-XX+XXXX++-;qisuar+. .... ....",
". .........-<yaapaaautttttytttuuissiy:............",
" o...........->quuaaaaaaaaaaayt<,,,>-..... .......",
".............  .+;:1iapu<>>:;+X. .........+ ......",
".............. ...XwdfNM0 #4# ....................",
"...  ........ $64o2bNFKLB8cDk%............. ....  ",
"....o........$cJDzmKHDHKJDJLKh&X ... . o........  ",
" .... . .. .3nKJHLKDHJLJLLDJHDB5O.. ... o ..o  .  ",
" o....... O8BJHHHJDKLKIUILLKDSHDz*...... ... .    ",
" ....... #jHJHKLLDDLLHKIKHKLJDHKKn* ........   .  ",
".      .ojHIJHKULDDLLHDDHDJLJJKJJG9$      .  . .  ",
"   . .  $zJKHHJHJHHKJKKDHKDJHIYYKHHv*. ...   .    ",
"..     $xDJJHJHHUIKHKYYJHLLKIR!QYJHLzO     ..  .  ",
"   .  OkJKJJJJHURYKKKYYKHLILIYRRUJJLC2  .   .     ",
" . .  4GLIUULHJUIJJHHIIHJILDDJLIJHGKJ5 .  ..  ..  ",
"  . ..8HHJUUJHHKHHHJIYKHHIIJDJDJGJHGJgo  o   .  o ",
".   .OcHHKKJHHHHHKHHKUUHDJLLJLDJHJJSJnO   .   .   ",
".    o9HHJHHHJJJPYIJHJIHHJKJJLDJKHJJHnO      .  o ",
"  .. .7JKJJHHIYTW!WYJHJHJDHHIIJJLUYUJA4  . .   .  ",
". .  2mIYUJHIURQ!!!RKHHKUIKURUJJUTERKV=    . .    ",
".  . &ZITUJHJJJY!!!YJHIRWRRQQUJHLLYTIvO ..   .  o ",
"  .  @mLUIKGHHHUW!EIHJUTYURWRLHJHGKULnO   . ..    ",
" ..  OcJJJHJJHLT!EUKKHJJHHKYKHGHHHKUKxO        .  ",
"      5SGHHKKHJUYUJHJKHHJJHJHHHHHHHIG4    ... .   ",
".. .  @nJHHKYPHHJKHHHLJHKLJGHKHLHJHJkO   .    .   ",
"      ogHKKT!RIHGHJKHLUJHLUKHHHHHLJm=      o..    ",
" .  o  O7GUW!RIHHLLHJLUKHLYPHLLKUIH9           .  ",
"        OlKTWYJJUYKHHJHHPRRLHLYRTIF2              ",
"         2mPTUHJYWYKJKJUE!RLHLRWYJgo              ",
"          2cJLJJIWQETTRW!EIJHLULJxO               ",
"           $kDJHLIRWQWWWTLJHJLLBh$                ",
"            o4mGHHJLUUUILJSSBz6$o                 ",
"              $6xnnnmmmnvg75$O                    ",
"                oOOOOOOoOo                        ",
"                                                  ",
"                                                  ",
"                                                  ",
"                                                  ",
"                                                  "
};
