/* XPM */
static char *Screen_Shot_2023_02_05_at_4_44_17_PM1675612177[] = {
/* columns rows colors chars-per-pixel */
"50 50 73 1 ",
"  c #0C0E13",
". c #130F13",
"X c #190F13",
"o c #0E1015",
"O c #121215",
"+ c #1B1013",
"@ c #121718",
"# c #141B19",
"$ c #231113",
"% c #2B1113",
"& c #331212",
"* c #3B1313",
"= c #17211C",
"- c #18241D",
"; c #1B291F",
": c #1D2D21",
"> c #1F3122",
", c #213423",
"< c #243B26",
"1 c #431412",
"2 c #4C1513",
"3 c #521512",
"4 c #5A1612",
"5 c #621712",
"6 c #641813",
"7 c #6C1913",
"8 c #731912",
"9 c #7C1A12",
"0 c #2A452A",
"q c #2F4F2F",
"w c #30512F",
"e c #325330",
"r c #3A6237",
"t c #3B6438",
"y c #3E6A3B",
"u c #445631",
"i c #416E3C",
"p c #43733E",
"a c #467840",
"s c #497C43",
"d c #841A12",
"f c #8D1B12",
"g c #951C12",
"h c #9B1E13",
"j c #A01F14",
"k c #822517",
"l c #902216",
"z c #96301D",
"x c #A42015",
"c c #AB2216",
"v c #B02317",
"b c #B52518",
"n c #BB2619",
"m c #C6291C",
"M c #4D8347",
"N c #4E8A46",
"B c #4F8548",
"V c #538C4B",
"C c #58984F",
"Z c #599652",
"A c #5B9B53",
"S c #729B5A",
"D c #60A257",
"F c #65A65C",
"G c #66AA5C",
"H c #68A85F",
"J c #6BAB63",
"K c #6FB166",
"L c #74B46C",
"P c #7CBA74",
"I c #7FBD79",
"U c #80BC79",
"Y c #8AC284",
/* pixels */
"ooOoo@ooooooooooooooooooooooOOooooooooOooo@ooooo@o",
"oOoooooo@ooo@ooooo@o@o@o@oooooooo@@oOoooooooo@oooo",
"ooOo@oo@oooooo@oooooooooooooooo@ooooo@ooooo@oooooo",
"oooooooo@ooooooo@o@ooooooooo@ooooooooooooooooooo@o",
"oooooooooooooooooooooooooooooooooooooooooooooooooo",
"ooooooooooooooooooooooooooooooooooooooooo@oooooooo",
"oooooooooooooooooooooooooooooooooooooooooooooooooo",
"oooooooooooooooooooooooooooooooooooooooooooooooooo",
"ooooooo oooooo=o  ooooooooooooooOo########oooooooo",
"ooooooooooo o@iy<:o#:@oo#:@oooo#0rsMMMMBMsr0:@oooo",
"ooooo ooooooooaJJB<eVt><sZq=::qsDAMsMCFKPPLHCwoooo",
" ooooooo oo oo>ZUUFZLLAZZFssZZLLV0=@#:wMKYYPGp@ooo",
"oooo o ooooo o@yJYILUJVt<><aZLUZ<  oo o-iHHApe@ooo",
" oo oooo oo ooo=esVVsq:oooo@aSSuOoooo oo>VNp-#oooo",
"o ooooooo oo oo o@==@oooX%36kzll851$Oooo;e,;o oooo",
"ooooo ooooooooo oo  ooo&6fhhghjxhgxf3$ooooooooooo ",
"oo oo o oo oo o ooooo+5fhghgfhhghghhgd2ooooooooo  ",
" ooooooo ooooooooo o+7hgghhghjbjhghhghg3.oooooo   ",
"oooooooooo oooooooo$8hhhgjbjhjnjgxbhghhg4OooOooo  ",
" oo o o  oooo  oooo5hgghghhhhfhjxhhghhggg*   o    ",
" o  oo ooooooo o  *fhhggggcjhjjhxhhgggghh9$o oo   ",
"o  oo  o    o  oo.8ghhhhggvjhjjhghhhghhhgg2o   o  ",
"o  oo o   o o o  *fhjjghjhvchvmhghgxhhgxxh9$o     ",
"  o     oo      o2hhhggjchjhjmvhgghhchghjhf% oo   ",
" o  oo   o     oO7jgfhhhhhjjhjhghxhghgxxhjl1o     ",
"o  o   o   o o o.8jggxjbjhjhhncfgjxjbcxhgjj3  o   ",
"     o   o o  o O8hgghbnbhhvvmngxchjbncgghg3 o o  ",
" oo    o o  o   .8hxjghghhhjhhvghjgghhhgjjg2   o .",
"   o  o o    o  o2hhhhhcjhjghhgjhhhhcjhhjhf%    o ",
"oo  o o   o   oo *gggggjhjjhhhjhgjjjjjgjggd$o o   ",
"    o    o oo    .8ghxhfjhhhhbnjghhhjgljgg3 o    o",
" oo   o  o  o o oo1gjjhghhhhgjjjgjhhgghhxd%   oo  ",
"oo            o   Xdjggchhggghghggghxxghx5        ",
"   o     .  o o    1fghxhghggghggghghxhh9&    .   ",
"         .  .       %8gjhhxjghjjgxxghjg4X         ",
"o              o     &fxjgghhghhghggxh8X          ",
"                    X8gfgggjhhhgcjggggg3   .      ",
"                    *ggggggghgghhggggggdX         ",
"                    4ggggggggffggjgggggf*         ",
"                   .5ggffgfhj91fghggffgf1         ",
"                    X11%4gghd% 1fggf1&3&X         ",
"                        &9f9&   3dd5X             ",
"                         X%X     $XX              ",
"                                                  ",
"                                                  ",
"                                                  ",
"                                                  ",
"                                                  ",
"                                                  ",
"                                                  "
};
