/* XPM */
static char *Screen_Shot_2023_02_05_at_4_44_42_PM1675612178[] = {
/* columns rows colors chars-per-pixel */
"50 50 250 2 ",
"   c #0E1015",
".  c #0E0F14",
"X  c #13171A",
"o  c #161B1C",
"O  c #121619",
"+  c #1C2222",
"@  c #323F37",
"#  c #35443A",
"$  c #2F3B34",
"%  c #181D1E",
"&  c #0E1115",
"*  c #1F2725",
"=  c #36443B",
"-  c #2D3932",
";  c #1C2322",
":  c #1D2423",
">  c #313E36",
",  c #324037",
"<  c #15191B",
"1  c #0D0F14",
"2  c #191E1F",
"3  c #36443A",
"4  c #242D2A",
"5  c #38483C",
"6  c #181E1F",
"7  c #121519",
"8  c #303D35",
"9  c #334038",
"0  c #171C1E",
"q  c #0E1014",
"w  c #334037",
"e  c #313F36",
"r  c #0D0F13",
"t  c #0E1016",
"y  c #344339",
"u  c #29342E",
"i  c #181E1E",
"p  c #2E3A33",
"a  c #10141D",
"s  c #19223A",
"d  c #243661",
"f  c #263A69",
"g  c #263967",
"h  c #263867",
"j  c #22335B",
"k  c #131927",
"l  c #1E2525",
"z  c #3A4A3D",
"x  c #0E1117",
"c  c #0F1218",
"v  c #11151A",
"b  c #0E1118",
"n  c #1A243E",
"m  c #2B4177",
"M  c #355198",
"N  c #3A5BA8",
"B  c #3C5EAD",
"V  c #3B5CAA",
"C  c #3857A3",
"Z  c #3755A0",
"A  c #2F4785",
"S  c #304774",
"D  c #3A4F60",
"F  c #293538",
"G  c #131925",
"H  c #1D2A4A",
"J  c #293D70",
"K  c #2A3F74",
"L  c #293F73",
"P  c #1E2B4C",
"I  c #0E1116",
"U  c #151C2D",
"Y  c #2F4784",
"T  c #3B5DAB",
"R  c #3D61AF",
"E  c #3F65B3",
"W  c #3F66B4",
"Q  c #3C5DAC",
"!  c #38569E",
"~  c #314A83",
"^  c #3856A1",
"/  c #3B5CAB",
"(  c #3959A7",
")  c #3857A4",
"_  c #3756A1",
"`  c #304988",
"'  c #213157",
"]  c #121724",
"[  c #0F121A",
"{  c #0D1014",
"}  c #111621",
"|  c #2A4075",
" . c #3A5AA7",
".. c #3E62B1",
"X. c #4069B7",
"o. c #37549F",
"O. c #3959A6",
"+. c #3D60AE",
"@. c #3C5FAD",
"#. c #3856A3",
"$. c #3755A1",
"%. c #3A5AA6",
"&. c #3C5DAB",
"*. c #3A59A7",
"=. c #3958A5",
"-. c #37559F",
";. c #3958A4",
":. c #3756A0",
">. c #2F4886",
",. c #283C6E",
"<. c #1B2642",
"1. c #0D0E12",
"2. c #1C2744",
"3. c #36539B",
"4. c #3B5BA9",
"5. c #3C5EAC",
"6. c #3E64B2",
"7. c #3856A2",
"8. c #3959A5",
"9. c #36549E",
"0. c #35529B",
"q. c #3B5CA9",
"w. c #3E62B0",
"e. c #36549F",
"r. c #334F95",
"t. c #213055",
"y. c #0F1118",
"u. c #172035",
"i. c #3756A2",
"p. c #3A5AA8",
"a. c #3857A2",
"s. c #334E92",
"d. c #0D0F12",
"f. c #161F33",
"g. c #304989",
"h. c #3D61B0",
"j. c #3F65B4",
"k. c #3E63B1",
"l. c #141B2B",
"z. c #1E2B4D",
"x. c #345198",
"c. c #3F66B5",
"v. c #4068B6",
"b. c #4169B8",
"n. c #4068B7",
"m. c #2D4580",
"M. c #182137",
"N. c #1B2743",
"B. c #324D8F",
"V. c #3F64B2",
"C. c #3D62B0",
"Z. c #4067B5",
"A. c #416AB9",
"S. c #416BBA",
"D. c #2E4683",
"F. c #121825",
"G. c #2E4681",
"H. c #395AA7",
"J. c #3B5DAA",
"K. c #3D60AD",
"L. c #426BBA",
"P. c #3C5FAE",
"I. c #324E91",
"U. c #141A29",
"Y. c #182138",
"T. c #35539B",
"R. c #3858A4",
"E. c #3C60AD",
"W. c #324D90",
"Q. c #131A29",
"!. c #0E1017",
"~. c #23355F",
"^. c #3D60AF",
"/. c #131929",
"(. c #0D0E13",
"). c #22325B",
"_. c #4067B6",
"`. c #3A5BA9",
"'. c #36539D",
"]. c #3858A3",
"[. c #3E63B2",
"{. c #172037",
"}. c #355199",
"|. c #37549E",
" X c #395AA6",
".X c #3C5EAB",
"XX c #0C0E12",
"oX c #3C5FAC",
"OX c #334F94",
"+X c #1C2846",
"@X c #151C2E",
"#X c #416AB8",
"$X c #243663",
"%X c #253765",
"&X c #36549D",
"*X c #1E2C4F",
"=X c #19233C",
"-X c #334E93",
";X c #324D91",
":X c #141A2A",
">X c #0C0E13",
",X c #121725",
"<X c #2C447E",
"1X c #3A59A8",
"2X c #121826",
"3X c #0D1016",
"4X c #36539C",
"5X c #3958A6",
"6X c #0D0F15",
"7X c #1D2A4B",
"8X c #355299",
"9X c #2C427B",
"0X c #141B2D",
"qX c #0E1119",
"wX c #2E4783",
"eX c #0E121A",
"rX c #243662",
"tX c #35529A",
"yX c #2E4682",
"uX c #182139",
"iX c #0F131C",
"pX c #213056",
"aX c #314A8B",
"sX c #141C2E",
"dX c #2C437B",
"fX c #37559E",
"gX c #2C437C",
"hX c #1A243F",
"jX c #10141E",
"kX c #203056",
"lX c #334F93",
"zX c #3B5BAA",
"xX c #3957A4",
"cX c #213158",
"vX c #10141F",
"bX c #0D0E14",
"nX c #0D1017",
"mX c #161E33",
"MX c #2A4076",
"NX c #293F74",
"BX c #22325C",
"VX c #0F121B",
"CX c #131A2B",
"ZX c #141A2C",
"AX c #1B2744",
"SX c #23335D",
"DX c #22335C",
"FX c #1C2848",
"GX c #0C0D12",
"HX c white",
/* pixels */
"                                                                                                    ",
"                                                                                                    ",
"                                                                                                    ",
"                                                                                                    ",
"                                              . .                                                   ",
"                                            X o o O                                                 ",
"                                          + @ # # $ %                                               ",
"                                      & * = - ; : > , < 1                                           ",
"                                      2 3 $ O 1 1 4 5 6 1                                           ",
"                                  . 7 8 9 0 q 1 < w e X 1                                           ",
"                    . r     t t   1 X y u   q 1 i p : q                                             ",
"                q q a s d f g h j k l z u q 1 x c v c b q r q                                       ",
"q q q q q q q q   n m M N B V C Z A S D F G H J K L K J P k I 1 . q q q q q q q q q q q q q q q q q ",
"q q q q q q q 1 U Y T R E W R C C Q V ! ~ Y ^ / ( ) ) ( _ ` ' ] [ r 1 q q q q q q q q q q q q q q q ",
"q { q { q { 1 } |  ...W X.E V o.O.+.@.V #.$.%.&.*.=.-.;.+.@.:.>.,.<.[ 1 { q { q { q { { { { { { q 1 ",
"1 1 1 1 1 1 1.2.3.4.&.5.6.+.7._ O.8._ 7._ 9.0.Z 7._ -.q.w.+. .9.e.r.t.x 1 1 1 1 1 1 1 1 1 1 1 1 1 1 ",
"1 1 1 1 1 y.u.K 9.i.7.p.5.;.o.^ -.a.) O. .q.;.-.C  .T @. ._ 9.-.N 4.s.u.d.1 1 1 1 1 1 1 1 1 1 1 1 1 ",
"1 1 1 1 r f.g.C *.*.*.p.C 9.) Z  .R V ^ 8.R h.8.o.p.N C Z ;.V +.j.k. .| l.r 1 1 1 1 1 1 1 1 1 1 1 1 ",
"1 1 1 1   z.x.7.a.7.C _ 7.N N -. ...w.O.Z T E @.$.^ -.8.@.k.c.v.b.n.k.%.m.M.  1 1 1 1 1 1 1 1 1 1 1 ",
"1 1 1 1 N.B.V V Z 0.=.T +.V.R C Z  . ._ Z 5.E w.8.0.;.C.Z.A.S.n.E W n.6.q.D.F.r 1 1 1 1 1 1 1 1 1 1 ",
"1 1 r k G.V w.5.7.x._ H.V R k.@. .C 7.;.J.k.E K.7.0.O.k.X.L.n.R  .N k.W P.I.U.r 1 1 1 1 1 1 1 1 1 1 ",
"1 1 1.Y.T.5.N _ -.Z C C 7.^  .@.R B 5.+.w.R J.:.Z Z R.R v.Z.E.a.-.Z O.R P.W.Q.r 1 1 1 1 1 1 1 1 1 1 ",
"1 1 !.~.a.O.9.8.T +.w.^.O.9.Z 7.;.;.R.R.R.a.-.a.5.O.9.q.6.6.4.a.T N Z V B W./.(.1 1 1 1 1 1 1 1 1 1 ",
"1 1 t ).^ _ a.+.W _.v.6. .$.`.V =.-.'.;.8.8.q.C.W R ].-.N k.k.R [.V Z q.B W./.(.1 1 1 1 1 1 1 1 1 1 ",
"1 1 1.{.}.Z p.6.W k.W 6. .$.5.k.N _ q.k.6.6.W n.b.v.w.8.|. XK.+..XR.-.V 5.B./.(.1 1 1 1 1 1 1 1 1 1 ",
"1 1 XX{.x.i.@.V.@.=.oXV.T 7.N &.a.O.w.n.A.b.Z.6.6.6.k.J.Z 9._ 7.Z Z O.T 8.OX+X1 1 1 1 1 1 1 1 1 1 1 ",
"1 1 1.@X` 7.P.V.V Z `.w.5.Z ) ( Z `.E #XA.W 5.8.8.=.=.C ;.q.`.O.O.*.=._ -.C $X1 1 1 1 1 1 1 1 1 1 1 ",
"1 1 r x %X_ @.E +.C _ R._ '.Z _ '.O.k.n.Z.5._ _ R.Z &X`...E +.C _ i.'.-.*.|.*X1 1 1 1 1 1 1 1 1 1 1 ",
"1 1 1 (.=X-XN k.V.q.&X_ O.T 5.V Z i.+._.n.w.q.+.h. .$.T E 6.N Z =.O.;.-.p.;X:XXX1 1 1 1 1 1 1 1 1 1 ",
"1 1 1 >X,X<Xo.J.R V $.p.w.V.6.R =.-.T E b.n.E Z.V.p.$.T E E V i.i.;.*.Z 1XI./.XX1 1 1 1 1 1 1 1 1 1 ",
"1 1 1 >X2XD.-._ ;.C Z N w.T  XO.*.a.7.q.k.6.6.6.+.a.Z 5.W b.j.+.+.T C Z p.>.,X>X1 1 1 1 1 1 1 1 1 1 ",
"r 1 r (.3X%XO.C 7.9.C @.+.a._ Z 7.*.a.-.R.8.8.8.C 4X^ T [.c.W E k.`.9.5X=.).6Xr 1 r r 1 r 1 r 1 r 1 ",
"r r r r (.7X8XV 5.C a.@.+.N T N e.p.+.N R.R.C e.;.;.'.9.8.V J.J.`._ 7.O.9X0X>Xr r r r r r r r r r r ",
"r r r r (.qXz.M 5.T Z -.C  .N a.Z *.`.N 5.w.T Z a.7.^ R._ _ i.i._ _ O.wX/.XX(.r r r r r r r r r r r ",
"(.(.(.(.(.XXeXrX-.Q =.9.7._ i._ 7.-._ -.8.w.C.;.tXC T O.i.7.i.C  .;.yXuX1 (.(.(.(.(.(.(.(.(.(.(.(.(.",
">X>X>X>X>X(.>XiXpXaX9.C / +.+.`.Z O.@.%.8.R w.O.0.O.=.-.8.N O.-.5XyXsX>X>X(.>X>X>X>X>X>X>X>X>X>X>X>X",
">X>X>X>X>X>X>X>X3X/.*XdXfX+.k.J.Z  .w.+.@.@.V 7.0.O.7.^ V +.Q T.gXhX>X>X>X>X>X>X>X>X>X>X>X>X>X>X>X>X",
">X>X>X>X>X>X>X>X>XXX>XjXkXlXO.zXC _ =.;.R.Z Z _ Z xXO._ i.C OXcXvXbX>X>X>X>X>X>X>X>X>X>X>X>X>X>X>X>X",
">X>X>X>X>X>X>X>X>X>X>XXXnXmX).MXlXs.}.) ) =.( p.( -.&Xs.NXBXmX!.XX>X>X>X>X>X>X>X>X>X>X>X>X>X>X>X>X>X",
">X>X>X>X>X>X>X>X>X>X>X>X>XXX>XVXCXZXAXSXSXSXSXSXSXDXFXCXVX>XXX>X>X>X>X>X>X>X>X>X>X>X>X>X>X>X>X>X>X>X",
">X>X>X>X>X>X>X>X>X>X>X>X>X>X>X>XGXGXXXXXXXXXXXXXXXXXXXGX>X>X>X>X>X>X>X>X>X>X>X>X>X>X>X>X>X>X>X>X>X>X",
">X>X>X>X>X>X>X>X>X>X>X>X>X>X>X>X>X>X>X>X>X>X>X>X>X>X>X>X>X>X>X>X>X>X>X>X>X>X>X>X>X>X>X>X>X>X>X>X>X>X",
">X>X>X>X>X>X>X>X>X>X>X>X>X>X>X>X>X>X>X>X>X>X>X>X>X>X>X>X>X>X>X>X>X>X>X>X>X>X>X>X>X>X>X>X>X>X>X>X>X>X",
">X>X>X>X>X>X>X>X>X>X>X>X>X>X>X>X>X>X>X>X>X>X>X>X>X>X>X>X>X>X>X>X>X>X>X>X>X>X>X>X>X>X>X>X>X>X>X>X>X>X",
">X>X>X>X>X>X>X>X>X>X>X>X>X>X>X>X>X>X>X>X>X>X>X>X>X>X>X>X>X>X>X>X>X>X>X>X>X>X>X>X>X>X>X>X>X>X>X>X>X>X",
">X>X>X>X>X>X>X>X>X>X>X>X>X>X>X>X>X>X>X>X>X>X>X>X>X>X>X>X>X>X>X>X>X>X>X>X>X>X>X>X>X>X>X>X>X>X>X>X>X>X",
">X>X>X>X>X>X>X>X>X>X>X>X>X>X>X>X>X>X>X>X>X>X>X>X>X>X>X>X>X>X>X>X>X>X>X>X>X>X>X>X>X>X>X>X>X>X>X>X>X>X",
">X>X>X>X>X>X>X>X>X>X>X>X>X>X>X>X>X>X>X>X>X>X>X>X>X>X>X>X>X>X>X>X>X>X>X>X>X>X>X>X>X>X>X>X>X>X>X>X>X>X",
">X>X>X>X>X>X>X>X>X>X>X>X>X>X>X>X>X>X>X>X>X>X>X>X>X>X>X>X>X>X>X>X>X>X>X>X>X>X>X>X>X>X>X>X>X>X>X>X>X>X",
">X>X>X>X>X>X>X>X>X>X>X>X>X>X>X>X>X>X>X>X>X>X>X>X>X>X>X>X>X>X>X>X>X>X>X>X>X>X>X>X>X>X>X>X>X>X>X>X>X>X"
};
