/* XPM */
static char *Screen_Shot_2023_02_05_at_4_44_51_PM1675612178[] = {
/* columns rows colors chars-per-pixel */
"50 50 64 1 ",
"  c #0C0E13",
". c #110F14",
"X c #0E1015",
"o c #131116",
"O c #191117",
"+ c #131618",
"@ c #1D1318",
"# c #18181A",
"$ c #24141A",
"% c #2C161C",
"& c #31171D",
"* c #33191E",
"= c #1C221F",
"- c #2C1D20",
"; c #3B1A20",
": c #1F2622",
"> c #242B25",
", c #2B342A",
"< c #30382D",
"1 c #353E31",
"2 c #421C22",
"3 c #4C1E25",
"4 c #511F26",
"5 c #4E2A2B",
"6 c #5A2229",
"7 c #533F36",
"8 c #64242B",
"9 c #6D262E",
"0 c #682B2F",
"q c #72272F",
"w c #762830",
"e c #7E2A33",
"r c #364333",
"t c #394735",
"y c #404F3B",
"u c #475840",
"i c #4D5F44",
"p c #4E6045",
"a c #516447",
"s c #566B4B",
"d c #5A6F4E",
"f c #5B714F",
"g c #5E7451",
"h c #607753",
"j c #637A54",
"k c #7D7657",
"l c #842C34",
"z c #8A2D36",
"x c #922F38",
"c c #873B3C",
"v c #953039",
"b c #9E323B",
"n c #A3343D",
"m c #A8363F",
"M c #973F40",
"N c #AA3740",
"B c #AE3842",
"V c #B23A43",
"C c #814B43",
"Z c #6B855B",
"A c #6E895E",
"S c #708C5F",
"D c #728E61",
"F c #759163",
/* pixels */
"XXXXXXXXXXXXXXXXXXXXXXXXXXXXXXXXXXXXXXXXXXXXXXXXXX",
"XXXXXXXXXXXXXXXXXXXXXXXXXXXXXXXXXXXXXXXXXXXXXXXXXX",
"XXXXXXXXXXXXXXXXoXXXXXXXXXXXXXXXXXXXXXXXXXXXXXXXXo",
"XXXXXXXXXXXXXXXXXXXXXXXXXXXXXXXXXXXXXXXXXXXXXXXXXX",
"XXXXXXXXXXXXXXXXXXXXXXXXXXXXXXXXXXXXXXXXXXXXXXXXXX",
"XXXXXXXXXXXXXXXXXXXXXXXXXXXXXXXXXXXXXXXXXXXXXXXXXX",
"XXXXXXXXXXXXXXXX+++XXXXXXXXXXXXXXXXXXXXXXXXXXXXXXX",
"XXXXXXXXXXXXXXX>addr+XXXXXXXXXXXXXXXXXXXXXXXXXXXXX",
"XXXXXXXXXXXXXX>hFDDAtXXXXXXXXXXXXXXXXXXXXXXXXXXXXX",
"XXXXXXXXXXXXXouDfujDuXXXX+XX+XXXXXXXXXXXXXXXXXXXXX",
"XXXXXXXXXXXXX+sDiiDh1,,,uiiiiiy,:++XXXXXXXXXXXXXXX",
"XXXXXX XXXXXXX1AAjZZAZAAFFFDFFDSjsp>XXXXXXXXXXXXXX",
"XXXXXXXXXXXXX #uADAZgfgZFhu1trugASArXXXXXXXXXXXXXX",
"XXXXXXXXXXXXXX #<11,##=dF1 O@--5CC7%XXXXXXXXXXXXXX",
"XXXXXXXXXXXXX%5998q8;%#sD7&4lxxNnmbz5O XXXXXXXXXXX",
" oXXXXXXX O;9vnnNNMNMx0dkcvvNNxNbmmnbq*XXXXXXXXXXX",
"X  XX. X $9vbnnbbNbbVVNMMNNbNNbNnnnnbnv3.  oXXXX  ",
" X    XX$qbbNnnbNNbNVVNbbNbbbNNNnbnnBBBx3.  XXXX  ",
"X  XX  .8bnBNnNnvNNNNNbbNbbbbNNbnnnbnnnbx*  X  X  ",
" XX  X.-xbNNbbnNbxNxbNNbbNNbbbbxnnbnbnbnb8oX  X   ",
" X X  .8nbNNbbnnNbbbbNVNbbbbNBnNBmnmbnbnnl@X  X   ",
"X X   @lnbnNnnnnvNbNbBVbbNNbbBNbBBBmnnnbnv;  X X  ",
"X     ;bnbbbbbBVbbNbbNNbNNNbNVnbbnnbbnbbbb3XXX    ",
" X X  2nnnbnnbBVNbNbbNNbBVbNBBbbnbbnbnnnmb3   X   ",
" XX XX$zbbnBnbnnnnBVNnnnNNBVBNbNnnbmnbnbnb3  XX   ",
"X  X  X8nbnnbnnbbbnBnbBnbbNNbbNVnmnnnnnnnb3 X  X  ",
" X   X 2bbbbnNnnbbnbnNBbNbbbNnbBmVnnnnnnnn5  XX   ",
"X  XX X@lnbbnBnbbbnnNNnbNbNNNbbnmmnnnnBmmn3 X  X  ",
"X X   X 4NnnnnbnnbbbnbnNNnBBbnNbbbbnnbnmmz$. X    ",
" X XX  XO9bNBnnnbnbnbbNVNbBBbBVnbnnnnbnnx* .X X   ",
" X   XX  OwBNnnbnnnnbNbNBnnNnNnbnnmmnbnn6    X    ",
"X X X  X. &lnnNnnnbbbNnnVNbbbbbbnmmmnbv6o .  X   .",
" X       . &lmmnnmbbnmnbmmbnmnnnnnbmnl3. .        ",
"X  X.       %ennbnnbbnbnmbnbmmbnnnmnl%   . .      ",
"      .   .X $9bbbbmmmnbbmnnmmbbbnbq$             ",
"              o3lbmmbmmnmmmbmmbnnl3.    .     ..  ",
"                $8bmmbmbmmmmmmnnq$                ",
" .              ..9vbbmnmmmmmmnqO.      .         ",
"                  .2xnmbnbbnmx8O.                 ",
"                 ...&9bbmnnnz2..                  ",
"                      ;qbbl4O                     ",
"                        ;3$                       ",
"                                                  ",
"                                                  ",
"                                                  ",
"                                                  ",
"                                                  ",
"                                                  ",
"                                                  ",
"                                                  "
};
