/* XPM */
static char *Screen_Shot_2023_02_05_at_4_45_18_PM1675612178[] = {
/* columns rows colors chars-per-pixel */
"50 50 73 1 ",
"  c #0C0E13",
". c #0F0F18",
"X c #0E1015",
"o c #0F1018",
"O c #141416",
"+ c #181717",
"@ c #11111B",
"# c #181718",
"$ c #1D1A19",
"% c #221E1A",
"& c #27221C",
"* c #2C251D",
"= c #31291F",
"- c #151224",
"; c #19142B",
": c #1D1632",
"> c #211739",
", c #22183C",
"< c #352C21",
"1 c #392E21",
"2 c #3D3123",
"3 c #423525",
"4 c #473927",
"5 c #4A3B27",
"6 c #4C3C29",
"7 c #54422C",
"8 c #5A462E",
"9 c #5B4730",
"0 c #5D4931",
"q c #634D33",
"w c #675035",
"e c #695237",
"r c #6E5639",
"t c #745A3C",
"y c #795E3F",
"u c #261A43",
"i c #281B47",
"p c #2A1B4B",
"a c #2F1E52",
"s c #3A2754",
"d c #33215C",
"f c #362161",
"g c #392366",
"h c #3C246B",
"j c #3F2571",
"k c #53395F",
"l c #412774",
"z c #422876",
"x c #422778",
"c c #45297C",
"v c #472880",
"b c #4A2B84",
"n c #4E2D8C",
"m c #502F8F",
"M c #4F2C91",
"N c #522F95",
"B c #543196",
"V c #56329A",
"C c #59349E",
"Z c #5C36A2",
"A c #5E38A6",
"S c #5F39A8",
"D c #623BAC",
"F c #663EB1",
"G c #683FB4",
"H c #6941B6",
"J c #6C43BA",
"K c #7046BF",
"L c #7147C0",
"P c #744AC4",
"I c #774DC8",
"U c #794ECA",
"Y c #7B51CD",
/* pixels */
"XXXXXXXXXXXXXoXXXXXXXXXXXXXXXXXXXXXXXXXXXXXXXXXXXX",
"XXXXXXXXXXXXXXXXXXXXXXXXXXXXXXXXXXXXXXXXXXXXXXXXXX",
"XXXXXXXXXXXXXXX @###XXXXXXXoXXXXXXX XXXXXXXXXXoXXX",
"XXXXXXXXXXX X#*<26651<<%#XXXXXXXX@# XXXXXXXXXXXXXX",
"XXXXXXXoXXXO&38qwwerqew85=$OXX@+&21OXXXXXXXXXXXXXX",
"XXXXXXXXXX+1787852480ryyt072<1470q4#XXXXXXXXXXXXXX",
"XXXXXXXX +386*$$#X#$=37qrrrwwwrre9<XXXXXXXoXXXXXXo",
"oXXXXXXXO184%O++XXXXX#$<579999983*#XXXXXXXXXXXXXXX",
"XXXXXXXXO38= +=3#XXXXX &807*$&$$OXXXXXXXXXXXXXXXXX",
"XXXXXXXXO=82$+26& XXX O2wt7&XXXXXXXXXXXXXXXXXXXXXX",
"XXXXXXXXX+38755=OXXXXX+3ew3OXXXXXXXXXXXXXXXXXXXXXX",
"XXXXXXXXX %366=OXXXXX $5w9*XXXXXXXXXXXXXXXXXXXXXXX",
"XXXXXXXXXX O++OXXXX-;>skkks;-@XXXXXXXXXXXXXXXXXXXX",
"XXXXXXXXXX     O-ugbBCDZMBBmBzd:@XXXXXXXXXXXXXXXXX",
"XXXXXXXXXXXO  @ibBZHFDZBVACCHHDnf;X XXXXXXXXXXXXXX",
"XXXXXXXXXXX  ;zCHSBBCBmCHDVCHKDVVmaO XXXXXXXXXXXXX",
"XXXX X XX  o,xVDJSBSFZVFJSZGLHZMCDAg; XX X XXX X  ",
"    XX X  -amVNAHBBASZBFJJHGSZBAZVAAl- X XX  X X  ",
"X  X  X  XaVDZDDVBZCZBMVZZZVNBVZDSVNNj-XX  X      ",
"X  X X  X>bVZACVZDSZZSCZZZZMZZSZVDVVZZg@ X  X XX  ",
"  X X XX-cDVBZCVDFZSDGCAJGZVZNZVVZCGJFVp X X XX   ",
"X  X    aAFCAHZVDVSJLGCSLLAZAVVZFCAJFCCv;  X      ",
"X  X X -cFZBDFCZFBZFFZVHULSVSGGJGCAGCCZNp   X  X  ",
"  X X  >NZVNZDVDJDVVVZFJILJZVSJHDZCDVZGAj@ X XX   ",
"X  X  XuNNDDDVNCJJJFFFDDSDGGAVZZNVNZZVDDc@X   X   ",
"X X  XohZCAJHDNNZGJFAZVVZVNSJFVZDDZNCZDDN>  XX    ",
"  X   ohNVADADDVVZAVVADGGJAZSJDZVVZVVCCVB,     X  ",
"X  X  .jVCVVZGGVAFDAGGFDGLLFVSVVDDZAVCVCCu X XX   ",
"X  XX @jVAVVSJDVDLPJJZVVVDLJZZVAGKFCNCZVBu        ",
"  X  X dZZVCZDVCJUYPDVFFZALGZVANZDVVVCVCb:     X  ",
"X X    ,CVADVVVSHPUJZZJLFGLDNSJSCCVZNZVBx@  O     ",
"X  X   :nCHJDVCVCDLJZNDJJGDVZJULDCVZNZDDg@        ",
"  X     gDJDVCADZVFGSNNZVVNAGYIGZZZSVBGZ,    X    ",
"X  X    >VDNDDVZDVAZZSSZZZVZLPGZZCVAVVSx@      X  ",
"        .fNZGDNDSVZCFLDVCAZCFFSVZVSFVVM:          ",
"         @lDJGVVVNVNFGSVASZNCCNVAVZZZVp           ",
"          ;xGJFVNCZVZGDCCNNSFDZVSCVZVa.           ",
"           -xDFCAZZSVCSDANAFFGSVFFFVa             ",
"            @fCVZZVZVZZCCVFACZZZFFn:.             ",
"             .ixVZAZSGGGZCFFZVZFVg;               ",
"               @ixVSFGGGDNDFDZMd;                 ",
"                  >dgvNNNMvhgi-                   ",
"                     .;----                       ",
"                                                  ",
"                                                  ",
"                                                  ",
"                                                  ",
"                                                  ",
"                                                  ",
"                                                  "
};
