/* XPM */
static char *result[] = {
/* columns rows colors chars-per-pixel */
"50 50 220 2 ",
"   c #000000",
".  c #080507",
"X  c #060508",
"o  c #0A0609",
"O  c #0C090C",
"+  c #110B0E",
"@  c #0E0C13",
"#  c #0F0E1A",
"$  c #140D12",
"%  c #190E14",
"&  c #110F1A",
"*  c #151215",
"=  c #191317",
"-  c #14121C",
";  c #1B1419",
":  c #1D1B1D",
">  c #1D1913",
",  c #22151B",
"<  c #26191E",
"1  c #161322",
"2  c #1A1525",
"3  c #1A1729",
"4  c #1C192B",
"5  c #1F1B34",
"6  c #241C21",
"7  c #2A1D22",
"8  c #221A2C",
"9  c #201728",
"0  c #211D34",
"q  c #221D39",
"w  c #2F2124",
"e  c #29282A",
"r  c #322326",
"t  c #342629",
"y  c #3B2C2C",
"u  c #372729",
"i  c #25213C",
"p  c #292438",
"a  c #362A38",
"s  c #333336",
"d  c #3C3D3E",
"f  c #3B343A",
"g  c #412323",
"h  c #4C2B37",
"j  c #442B3D",
"k  c #4B2938",
"l  c #562E34",
"z  c #443332",
"x  c #493633",
"c  c #4C3A37",
"v  c #45353D",
"b  c #443C3D",
"n  c #4C3B3A",
"m  c #533E3A",
"M  c #573739",
"N  c #572928",
"B  c #68382F",
"V  c #74362F",
"C  c #7B3B2E",
"Z  c #763A2F",
"A  c #673332",
"S  c #783A32",
"D  c #55413C",
"F  c #59453F",
"G  c #5A533F",
"H  c #7A4538",
"J  c #684337",
"K  c #262242",
"L  c #2A2545",
"P  c #2B274B",
"I  c #2D294D",
"U  c #2F2845",
"Y  c #332C43",
"T  c #3D2B43",
"R  c #312C4D",
"E  c #332745",
"W  c #3C3444",
"Q  c #3B3D42",
"!  c #34314A",
"~  c #3B324C",
"^  c #3B3749",
"/  c #2D2950",
"(  c #312D52",
")  c #382F52",
"_  c #3A3351",
"`  c #353052",
"'  c #412E45",
"]  c #453D41",
"[  c #45334C",
"{  c #493947",
"}  c #5C3147",
"|  c #5D3448",
" . c #573749",
".. c #4D3C55",
"X. c #453852",
"o. c #543C59",
"O. c #512F40",
"+. c #62334A",
"@. c #4E3F62",
"#. c #3E4242",
"$. c #424546",
"%. c #4C4444",
"&. c #4D4C46",
"*. c #464C4B",
"=. c #4D4D4A",
"-. c #4D424C",
";. c #5A4641",
":. c #5D4A43",
">. c #564849",
",. c #4E5049",
"<. c #59564A",
"1. c #4D4155",
"2. c #534455",
"3. c #5A4957",
"4. c #5A5252",
"5. c #5A5A5B",
"6. c #634D46",
"7. c #674944",
"8. c #734945",
"9. c #754848",
"0. c #645B45",
"q. c #67524A",
"w. c #6C554C",
"e. c #695848",
"r. c #72594F",
"t. c #75524A",
"y. c #685857",
"u. c #755C51",
"i. c #7B5F55",
"p. c #725D5D",
"a. c #6C6348",
"s. c #746A4A",
"d. c #736A49",
"f. c #64615F",
"g. c #7C6256",
"h. c #7C645A",
"j. c #746359",
"k. c #79724F",
"l. c #534364",
"z. c #5B4463",
"x. c #5E4B63",
"c. c #5D5766",
"v. c #4F4C65",
"b. c #634C6C",
"n. c #644B63",
"m. c #6A5C6B",
"M. c #6C5374",
"N. c #755A7C",
"B. c #705777",
"V. c #70536D",
"C. c #5D6161",
"Z. c #6B6565",
"A. c #746F6C",
"S. c #7C6461",
"D. c #79777B",
"F. c #6A6D79",
"G. c #803D2E",
"H. c #85422E",
"J. c #88473A",
"K. c #914C39",
"L. c #99543B",
"P. c #A45B3C",
"I. c #924F44",
"U. c #9A5746",
"Y. c #A45A45",
"T. c #A95E42",
"R. c #826559",
"E. c #856A5C",
"W. c #896D5E",
"Q. c #826057",
"!. c #966D56",
"~. c #AA6142",
"^. c #A97254",
"/. c #AD7150",
"(. c #866C62",
"). c #8D7162",
"_. c #927464",
"`. c #967867",
"'. c #9B7C6A",
"]. c #967869",
"[. c #8E757A",
"{. c #9D816A",
"}. c #87837F",
"|. c #9A807D",
" X c #A3836E",
".X c #AE8064",
"XX c #A68570",
"oX c #A88771",
"OX c #AD8B74",
"+X c #B08D75",
"@X c #B58666",
"#X c #775B80",
"$X c #7B5E84",
"%X c #7C7882",
"&X c #7D6183",
"*X c #807E85",
"=X c #7E8087",
"-X c #8E8A86",
";X c #898588",
":X c #918B87",
">X c #868792",
",X c #948C95",
"<X c #98959A",
"1X c #A69291",
"2X c #A7A29D",
"3X c #9E9DA4",
"4X c #A69BA1",
"5X c #ADAAAC",
"6X c #A8A5A6",
"7X c #B4ABAB",
"8X c #AFAEB2",
"9X c #B5AEB3",
"0X c #B9B8B7",
"qX c #B7B4AD",
"wX c #C0B9BD",
"eX c #C5C3BA",
"rX c #BDBEC1",
"tX c #D9D8CE",
"yX c #D3D2D4",
"uX c #CDCCCF",
/* pixels */
"                                                            X                                       ",
"                                    X o                   o :                                       ",
"                                    : e                   O &.                                      ",
"                                  X y.s                   X Z.e                                     ",
"                                X <.Z.o X X                 d A.O                                   ",
"                        O o     d }.:   . .               . O f.Z.o       .                         ",
"                        $ .   < ;X&.    O     o . X . .   . . : -X,.    . +                         ",
"                    . o $ . o A.-X>   $ + . O % % % $ . . . X . f.2X= O % + o .                     ",
"                . .     % O < qX-X= + % % ; ; < r 7 % , % $ % o >.eXD $ % .   .                     ",
"                . $ + + % % 7 0XqX%., y 4.y.7 z 6.6., =.Z.b 7 7 }.tX4.$ = 9 $ o                     ",
"                  . + $ 8 8 ; D.tXeX6X6X-X] ; z 6.;.7 t Z.2X2X7XtXeXf 9 p ( 8 O .                   ",
"                  . q K ( q 8 7 4.A.A.] 7 % 7 z ;.n u y 7 v y.-X*X] ; L / ( ( 8 .                   ",
"                O i ( / / I 8 9 8 7 7 , 7 > r y w r z y u c r r r , 7 L P I R i 5 1                 ",
"                3 I ( P L P 2 a f c r y x < z u.D D r.:.y x x D x g l l h j h ' ( p X               ",
"            X O i ( I f c f y c F F c z z y D {.q.;.{.`.J g B Z C C G.C V C V A j ( i $ O           ",
"            3 P P / U c F F ;.;.;.;.c r n y x 6.:.D :.H H.r N H V H.S H.V V H.C l / ( ` i           ",
"            @ ` / R v D F D ;.w.W.r.m u z D ;.;.D m :.t.H.g C H.Z H.J.L.H H Z C B ' I ( 1           ",
"            - ( R n w.q.D q.).E.XX`.R.g.F W.'.`.g.w.'.XXw.J ^./.U.^..XW.g.^.K.H.S A k R 3           ",
"          X 0 / ] i. Xi.r.XX+Xi.W.'.OX+X6.R.OXoX).W. X_.y _.+X+X'.`.E.q. X@X~.K.C L.J.E P #         ",
"        O 0 i U q.oX+X X_.oXOXr.m ).'.u.7.].).Q.t.h. X'.F m q.W.).r.6.F oX^.~.Y.C L.U.A L 1         ",
"          4 ( R i.+XoXXX XoXOXw.7.7.;.:.R.t.7.;.F 6.r.e.u.R.r.c c E.h.w.^.~.Y.U.P.I.I.A P 1         ",
"        X 4 ( L :.oX].R.OXOX).u. .m 9.t.8.i.R.h.g.g.W.R.E.u.'.`.D D `.).8.Y.Y.U.L.I.U.M E K &       ",
"        1 R / Y :.XXXXq.i.r.v x q.Q.9.9.Q.).u.u.w.r.r.r.h.'.oX'.R.y h.).u.M J.K.S [.7X1X3.L @       ",
"        X i ( -.W.XXoXw.D T q w W.t.8.B i.].(.).W.E.'.'.'.W.W._.E.n w. X{ P l V t.6XyXyX*X( 3       ",
"        @ L I :.oX{.r.e.e.W 0 8 >.W.(.7.M 6.y.q.:.<.6.r.6.>.;.q.q.y n 6.Y I k U.|.>X4X8X%Xv.q @     ",
"        & L W q.oXW.g.oXXX{ 0 8 [ 3. .{ X.5.D.;XD.;X*XD.D.D.D.c.[ a ' v P U S Y.1X6X8X3X>Xc.4       ",
"        - L -.u.XX{.oXOXOX3.p 7 T ..X.[ *X%X<XuXrX0XuX0XrX<XuX6Xx.[ [ T U E K.Y.U.1X5X<X<X1.1       ",
"        1 P q.E._.W.{.OXR.2.o.T z.b.l.,X8X>X;X7X5X:X5X-X<XD.,X>Xm.' z.o.[ E 9.T.~._.6X6X;X! &       ",
"      0 ( R D s.u <.a.r.6.B.M.z.o.o.b.m.c.F.4.m M x m x z m.-.T ' X.z.#XM.) ' U.J d.%.<.k.a *       ",
"      2 ! $.s &.-.%.f z >.B.b.z.[ M.z...' %XZ.k h k h k k %Xm.a [ l.z.o.N.l.Q 0.b b b -.%.e >       ",
"      4 / / y.(.{._.j.! x.b.o...b.N.N.n.| 9XqX+.} } | +.} 4X,X{ 3.x.#X[ [ [ >.W 3.'.R. Xh.W #       ",
"    X q / P p.OXOXXX3.P l.#Xb.b.N.z.p.;.+.7XuXV.} } }  .O.[.0XV.q.n.M.B.o.z.M._ ~ ]. XOX X..K @     ",
"    @ P / I S.+XOXOXS.) / l.&XN.o.M e.e. .1XyXZ.$.] d $.*.5XyXZ.0.F  .b.$X$Xl./ 1.].+XOXoX2.5 X     ",
"    @ P / / p.+XOXOX+XS.I >.g.4.] <.k.0.*.C.C.$.$.$.Q $.#.5.C.,.d.k.%.] >.y.! 1.XXOXOXOXoX1.5       ",
"  o 5 I / / p.OXXXoXXX_.X.^ s.a.a.s.a.*.*.*.*.*.*.Q d $.*.*.*.*.<.d.0.,.a.d.^ y.'. X XoXXX1.P @     ",
"  1 K I / ( (.XX'.'.'.).4.! 0.d.s.<.,.*.*.*.*.$.d * * d #.*.*.*.&.<.a.d.s.>._ E.W.].'.XX].3.P 1     ",
"    2 / / I y.(.'.{.XXj.X./ ^ =.,.*.*.*.*.*.$.Q * X   e $.*.*.*.*.*.,.<.&.! / X.).XX'.{.(._ / i .   ",
"    1 I / / / R 1.3.1._ / P ! *.*.*.*.*.*.*.#.>       X s *.*.*.*.*.*.*.*.! / I X.2.y.2.` / / I 3   ",
"  X 0 I / / / / / / / / / I ! *.*.*.*.*.*.*.e           O Q *.*.*.*.*.*.*.! I I / / / I / / / I 1   ",
"    1 / / / / / / I I / / I I #.*.*.*.*.*.s X             : #.*.*.*.*.*.#.P I I / P / / / / / I -   ",
"    - I / / / L 5 2 4 5 L I I Q *.*.*.*.s X                 : #.*.*.*.*.Q 0 & & # 1 i / / / / I 1   ",
"    @ 2 I / / 2     X X - 3 K Y Q #.d s @                     : s s d s @           3 / / / / P @   ",
"      . 5 K L &           X @ @ ; : : X                         @ : : o             X i / / I 3     ",
"        X @ 1 X                 O : = X X                       X > = .               2 L i 2 .     ",
"                                $ : $                           X * = X               X # X         ",
"                                O : o                             o : X                             ",
"                                $ *                               X = X                             ",
"                              X = *                               X = *                             ",
"                            . * = *                               X * = $ X                         ",
"                          . X X                                     .   X X                         "
};
