/* XPM */
static char *e7418b7d128c48c8cb340dfc5a2b9f85avqXOeqso5AasNQV[] = {
/* columns rows colors chars-per-pixel */
"50 50 227 2 ",
"   c #171415",
".  c #1D212C",
"X  c #28272C",
"o  c #292D37",
"O  c #2E333E",
"+  c #3E3937",
"@  c #323126",
"#  c #782B17",
"$  c #433B38",
"%  c #4F3929",
"&  c #773B31",
"*  c #2C501B",
"=  c #3C4B30",
"-  c #74461B",
";  c #49403F",
":  c #5A4433",
">  c #5A412D",
",  c #6D5238",
"<  c #704C30",
"1  c #44692B",
"2  c #46501C",
"3  c #2B3542",
"4  c #333943",
"5  c #3C3D47",
"6  c #473C40",
"7  c #294059",
"8  c #374558",
"9  c #315472",
"0  c #484447",
"q  c #564B4B",
"w  c #5C524B",
"e  c #494E5A",
"r  c #5A4F51",
"t  c #514E51",
"y  c #5C5354",
"u  c #595759",
"i  c #4E5350",
"p  c #755C4A",
"a  c #635B5D",
"s  c #635754",
"d  c #6D5B4C",
"f  c #68635D",
"g  c #786658",
"h  c #7B654D",
"j  c #485466",
"k  c #435E78",
"l  c #565B65",
"z  c #625D63",
"x  c #596574",
"c  c #50616E",
"v  c #676464",
"b  c #796B66",
"n  c #7B7169",
"m  c #696B74",
"M  c #7A787A",
"N  c #6C737B",
"B  c #87351D",
"V  c #993428",
"C  c #9B5839",
"Z  c #8F4E31",
"A  c #9A603B",
"S  c #AD613D",
"D  c #8A6A56",
"F  c #91684D",
"G  c #AD6341",
"H  c #AA694A",
"J  c #BB744F",
"K  c #B77455",
"L  c #AC7147",
"P  c #897668",
"I  c #967C68",
"U  c #857B79",
"Y  c #91756E",
"T  c #B25B57",
"R  c #C16E44",
"E  c #E96648",
"W  c #C47476",
"Q  c #ED5442",
"!  c #9E826A",
"~  c #8C817A",
"^  c #9E8976",
"/  c #AB9179",
"(  c #A69078",
")  c #A28971",
"_  c #F18D4F",
"`  c #D38C77",
"'  c #DFB271",
"]  c #F5AE60",
"[  c #F9C566",
"{  c #134B89",
"}  c #25568B",
"|  c #245B96",
" . c #2B6398",
".. c #39648C",
"X. c #185CA6",
"o. c #125DB0",
"O. c #225CA1",
"+. c #1961AD",
"@. c #1C75B1",
"#. c #2866A8",
"$. c #3878AC",
"%. c #276BB6",
"&. c #2675B5",
"*. c #377BB8",
"=. c #2C74AF",
"-. c #436483",
";. c #7A7B85",
":. c #6A7383",
">. c #1C7FC2",
",. c #847F83",
"<. c #2783BB",
"1. c #3B82BD",
"2. c #7C838D",
"3. c #4C8DBA",
"4. c #3B86C5",
"5. c #3194CD",
"6. c #3E9CE2",
"7. c #4793C5",
"8. c #579BCD",
"9. c #5197D1",
"0. c #6791C1",
"q. c #47A4D9",
"w. c #59A6D9",
"e. c #69A9D8",
"r. c #76ACD2",
"t. c #76B6E7",
"y. c #67ADE2",
"u. c #8B8687",
"i. c #958A84",
"p. c #878A92",
"a. c #9A9698",
"s. c #94938D",
"d. c #A78D81",
"f. c #A99586",
"g. c #B49E8A",
"h. c #A49B95",
"j. c #A7A399",
"k. c #B9A593",
"l. c #959BA6",
"z. c #9CA2AA",
"x. c #9FA9B5",
"c. c #A6A5A9",
"v. c #B4ACA5",
"b. c #BAB8A8",
"n. c #ADADB4",
"m. c #ADB1B9",
"M. c #B5B5BA",
"N. c #BBBABB",
"B. c #B7B4B4",
"V. c #C6B5A6",
"C. c #C4BDBA",
"Z. c #D7C08E",
"A. c #F3DB88",
"S. c #E7C88D",
"D. c #CEC4BA",
"F. c #D4C7BB",
"G. c #E4D3AA",
"H. c #E8E0B1",
"J. c #95BAD5",
"K. c #8CBED7",
"L. c #BCBBC3",
"P. c #B6B8C4",
"I. c #ABB1C1",
"U. c #86BCE9",
"Y. c #81BDF1",
"T. c #C1BFC0",
"R. c #E0BCC0",
"E. c #9CC4DA",
"W. c #BCC2CA",
"Q. c #A8C7DD",
"!. c #B6C4D1",
"~. c #88C4EB",
"^. c #93C7EB",
"/. c #94D0EE",
"(. c #88CAF2",
"). c #98CCF7",
"_. c #9FD3FA",
"`. c #A8CDEB",
"'. c #AADAF6",
"]. c #BADDF4",
"[. c #B2D2E7",
"{. c #BAE2F9",
"}. c #C4C3C5",
"|. c #C5C5CB",
" X c #C9C6CB",
".X c #CBCACB",
"XX c #C6C9CE",
"oX c #D7CCC8",
"OX c #DAD2CB",
"+X c #CDCDD2",
"@X c #C4C9D4",
"#X c #C8D1DA",
"$X c #D2D1D5",
"%X c #D5D5DA",
"&X c #DBDBDE",
"*X c #DAD7D4",
"=X c #D0CFD5",
"-X c #E4DDD9",
";X c #E3DDCD",
":X c #E9E3DD",
">X c #F1EFC7",
",X c #DDDCE2",
"<X c #D7DBE6",
"1X c #E2DEE5",
"2X c #DDE2E7",
"3X c #C9E6F7",
"4X c #D7E8F5",
"5X c #E2E1E5",
"6X c #E5E4EA",
"7X c #EBEAED",
"8X c #E9E7E6",
"9X c #F6EAEA",
"0X c #F6F3EE",
"qX c #E4EBF3",
"wX c #ECECF2",
"eX c #E6EDF7",
"rX c #F1EFF4",
"tX c #F1EFFA",
"yX c #ECF4FA",
"uX c #EBF3F9",
"iX c #F3F3F5",
"pX c #F8F7F4",
"aX c #F5F5FA",
"sX c #F8F7FC",
"dX c #F5F9FD",
"fX c #FFFFFF",
"gX c #FBF9F7",
/* pixels */
"fXfXfXfXfXfXfXfXfXfXfXfXfXfXfXfXfXfXfXfXfXfXfXfXfXfXfXfXfXfXfXfXfXfXfXfXfXfXfXfXfXfXfXfXfXfXfXfXfXfX",
"fXfXfXfXfXfXfXfXfXfXfXfXfXfXfXfXfXfXfXfXfXfXfXfXfXfXfXfXfXfXfXfXfXfXfXfXfXfXfXfXfXfXfXfXfXfXfXfXfXfX",
"fXfXfXfXfXfXfXfXfXfXfXfXfXfXfXfXfXfXfXfXfXfXfXfXfXfXfXfXfXfXfXfXfXfXfXfXfXfXfXfXfXfXfXfXfXfXfXfXfXfX",
"fXfXfXfXfXfXfXfXfXfXfXfXfXfXfXfXfXfXfXfXfXfXfXfXfXfXfXfXfXfXfXfXfXfXfXfXfXfXfXfXfXfXfXfXfXfXfXfXfXfX",
"fXfXfXfXfXfXfXfXfXfXfXfXfXfXfXfXfXfXfXfXfXfXfXfXfXfXfXfXfXfXfXfXfXfXfXfXfXfXfXfXfXfXfXfXfXfXfXfXfXfX",
"fXfXfXfXfXfXfXfXfXfXfXfXfXfXfXfXfXfXfXfXfXfXfXfXfXfXfXfXfXfXfXfXfXfXfXfXfXfXfXfXfXfXfXfXfXfXfXfXfXfX",
"fXfXfXfXfXfXfXfXfXfXfXfXfXfXfXfXfXdXfXfXgXgXfXfXfXfXfXfXfXfXfXfXfXfXfXfXfXfXfXfXfXfXfXfXfXfXfXfXfXfX",
"fXfXfXfXfXfXfXfXfXfXfXfXfXfXfX&X+ u M $XU *XfXfXfXfXfXfXfXfXfXfXfXfXfXfXfXfXfXfXfXfXfXfXfXfXfXfXfXfX",
"fXfXfXfXfXfXfXfXfXfXfXfXfXfXfXfXt X I a $ *XfXfXfXfXfXfXfXfXfXfXfXfXfXfXfXfXfXfXfXfXfXfXfXfXfXfXfXfX",
"fXfXfXfXfXfXfXfXfXfXfXfXfXfXfXgX0 o p.l $ OXfXdXfXfXfXfXfXfXfXfXfXfXfXfXfXfXfXfXfXfXfXfXfXfXfXfXfXfX",
"fXfXfXfXfXfXfXfXfXfXfXfXfXfXfX8Xn. Xa.p.g oXfXfXfXfXfXfXfXfXfXfXfXfXfXfXfXfXfXfXfXfXfXfXfXfXfXfXfXfX",
"fXfXfXfXfXfXfXfXfXfXfXfXfXfXfXfXfXfXfXfXk.D.fXpXfXfXfXfXfXfXfXfXfXfXfXfXfXfXfXfXfXfXfXfXfXfXfXfXfXfX",
"fXfXfXfXfXfXfXfXfXfXfXfXfXfXfXfXgXfXoXF < F % u.fXgXfXfXfXfXfXfXfXfXfXfXfXfXfXfXfXfXfXfXfXfXfXfXfXfX",
"fXfXfXfXfXfXfXfXfXpX:X9XpXfXfXfXfXfXfXI % , b z fXfXfXfXfXfXfXfXfXfXfXfXfXfXfXfXfXfXfXfXfXfXfXfXfXfX",
"fXfXfXfXfXfXfXfXfXrX^ / ( ( / / f.g.V.v % p b.w -XiXfXdXfXfXfXfXfXfXfXfXfXfXfXfXfXfXfXfXfXfXfXfXfXfX",
"fXfXfXfXfXfXfXfXfXfXfX0X9X-XOXF.V.V.k.( g./ ! ! I ! ! ! ( ( ^ D.8X5XpXfXfXfXgXfXfXfXfXfXfXfXfXfXfXfX",
"fXfXfXfXfXfXfXfXfXfXsXfXsXwXdXfXfXfXfXfXfXaXsX9X8X-X*XoXC.V.$ g P y 0XfXgXfXsX1XoXfXfXfXfXfXfXfXfXfX",
"fXfXfXfXfXfXfXfXfXdXsXiXiX7XpXfXsXtXsXsXsXsXtXwX6XfXsXaXfX X  z m w 0XfXfXaXk.& oXfXfXfXfXfXfXfXfXfX",
"fXfXfXfXfXfXfXfXfXdXsXsX8XrXiX>XA.A.G.pXsXtX7XsX,XwXrXrXwX%Xz.c.p.0 fXfXv.F A W fXsXfXfXfXfXfXfXfXfX",
"fXfXfXfXfXfXfXfXfXfXsXfXdX1X` _ ] [ [ G.tX1X7X1X6XtX7XrX6XfXfXfXfXv.h.D C J S 9XfXfXfXfXfXfXfXfXfXfX",
"fXfXfXfXfXfXfXfXfXsXsXrXG.' _ E E E Q ` eX9XaXrXtX7X7X7X6XgXfXfX.XD Z G K S W fXgXfXfXfXfXfXfXfXfXfX",
"fXfXfXfXfXfXfXfXfXsXsXaX:X;Xb.>XH.S.S.' Z.1XtX7XwX1X7X6XrXfX1XI H G J H L V 9XfXfXfXfXfXfXfXfXfXfXfX",
"fXfXfXfXfXfXfXfXfXaXaXsXdXM 5 qX;.m eX1X-X8XwX6X6X1X6X&X}.f.H S R G G C Z W fXgXfXfXfXfXfXfXfXfXfXfX",
"fXfXfXfXfXfXfXfXfXaXaXaXsXU ;..Xo u %XwXaXrX1X7X,X,X6X Xq C J G S C C C B C.fXfXfXfXfXfXfXfXfXfXfXfX",
"fXfXfXfXfXfXfXfXfXsXrXaX6X6X Xc.}.M.6XwX7X6X2X1X%X,X6Xa.6 d ` K Z - # - B 9XfXfXfXfXfXfXfXfXfXfXfXfX",
"fXfXfXfXfXfXfXfXfXgXwXwX5X$X.X+X%X$X,X8X6X1X,X%X%X%X,Xu.0 6 l.#X* 2 / / Z 9XfXfXfXfXfXfXfXfXfXfXfXfX",
"fXfXfXfXfXfXfXfXfXfXsX%X,X X}.T.B.W.+X$X,X,X%X$X$X+X1Xs.+ q w i * 1 8XsXfX*XoXfXfXfXfXfXfXfXfXfXfXfX",
"fXfXfXfXfXfXfXfXfXfXfXiX+X%X$X.X}.B. X}. X=X+X+X+X+XL.= @ q w q = 1 j.a.d g h.pXfXfXfXfXfXfXfXfXfXfX",
"fXfXfXfXfXrXsXfXfXfXfXfXwX+X+X|.B.n. XW.M.N.M.L.T.=Xu.6 = $ s s s s p P U N.$X%XfXfXfXfXfXfXfXfXfXfX",
"fXfXfXfXpXP b U -XfXfX7XfXpX%X}.:X$XD.N.L.n.N.z.m.|.,.+ + + r y a v % g.<X}. X6XfXfXfXfXfXfXfXfXfXfX",
"fXfXfXrXM.c.v a .X7X$XM.fXfXfXpXfXfXfXW.P i.z.z.I.P.l.t z   @ a y r $ M.tXqX5X,XfXfXfXfXfXfXfXfXfXfX",
"fXfXtX|.l.<X6X@X}.M.N.}.M.L.%X7XwXiXiXXXP - , g a.x.n.U ,.,.l 6 t y l n a.d.h  XfXfXfXfXfXfXfXfXfXfX",
"fXfXiX%X6XpXfXqXm.a.b.C.B.D.}. XXXXXW.P.;.p.u.g p 0 u.M P.fXu.b h.I y g P P i.fXfXfXfXfXfXfXfXfXfXfX",
"fXfXfXfXfXfXfXfXwXXXm.}.+X.X}.}.N.M.L.;.p.z.#X<Xh % n g N.uX^ p i.g q y ;.m J.'.].3X4XaXdXdXfXfXfXfX",
"fXfXfXfXgXfXwXn f ,X#Xq % : ; $ : P.n.> U p c.qXv.v.n.z.a.2.u j 2.j j e m z.'.U.Y.Y.t.Y.).).).'.4XfX",
"fXfXfXfXfXfXpXj.v v 2X.XD p P s.+Xm.s : M f 0 :.m k 8 8 8 8 j e M u f v m r.t.U.t.t.(.(.(.{.yXyXdXfX",
"fXfXfXfXfXaXeX{.Q.m.l.!.P.!.!.n.x O O o :.j 4 4 4 6 t y u f v z c -. .=.*.w.~.^.^.'.'.{.{.iXfXfXfXfX",
"fXfXfXeX`.^.~.^.8.0.c 3 4 5 3 . . o 7 8 N 0 j k -.-.k -. .#. .#.&.&.%.*.9.y.Y.(.(./.3XfXfXfXfXfXfXfX",
"fXfX4Xr.^.U.^.~.e.y.9.*.| 7 { | 9 { #.e. .| X.+.X.o.+.+.#.*.=.$.7.3.*.3.*.6.y./.'.'.3XfXfXfXfXfXfXfX",
"fXfXfX4X/.U.~.t.w.9.9.4.&.+. .| X.{ } X.X.#. .} } #.*.*.*.4.3.r.K.^.J.[.].].aXfXfXfXfXfXfXfXfXfXfXfX",
"fXfXfXfXfXyX4X3X].^.t.8.3.*.$. .| | | +.#.=.<.1.4.7.q.w.q.5.@.J.fXfXfXfXfXfXfXfXfXfXfXfXfXfXfXfXfXfX",
"fXfXfXfXfXfXfXfXfXgXfXyX4X<X4X#X$.<.<.<.<.<.<.5.5.6.q.w.w.e.r.Q.fXdXfXfXfXfXfXfXfXfXfXfXfXfXfXfXfXfX",
"fXfXfXfXfXfXfXfXfXfXfXfXfXfXfXeX8.5.<.&.@.@.<.1.8.r.K.[.3XwXfXfXfXfXfXfXfXfXfXfXfXfXfXfXfXfXfXfXfXfX",
"fXfXfXfXfXfXfXfXfXfXfXfXfXfXfXfXfXgXuX4X4XqX0XgXfXdXfXfXfXfXfXfXfXfXfXfXfXfXfXfXfXfXfXfXfXfXfXfXfXfX",
"fXfXfXfXfXfXfXfXfXfXfXfXfXfXfXfXfXfXfXfXfXfXfXfXfXfXfXdXfXfXfXfXfXfXfXfXfXfXfXfXfXfXfXfXfXfXfXfXfXfX",
"fXfXfXfXfXfXfXfXfXfXfXfXfXfXfXfXfXfXfXfXfXfXfXfXfXfXfXfXfXfXfXfXfXfXfXfXfXfXfXfXfXfXfXfXfXfXfXfXfXfX",
"fXfXfXfXfXfXfXfXfXfXfXfXfXfXfXfXfXfXfXfXfXfXfXfXfXfXfXfXfXfXfXfXfXfXfXfXfXfXfXfXfXfXfXfXfXfXfXfXfXfX",
"fXfXfXfXfXfXfXfXfXfXfXfXfXfXfXfXfXfXfXfXfXfXfXfXfXfXfXfXfXfXfXfXfXfXfXfXfXfXfXfXfXfXfXfXfXfXfXfXfXfX",
"fXfXfXfXfXfXfXfXfXfXfXfXfXfXfXfXfXfXfXfXfXfXfXfXfXfXfXfXfXfXfXfXfXfXfXfXfXfXfXfXfXfXfXfXfXfXfXfXfXfX",
"fXfXfXfXfXfXfXfXfXfXfXfXfXfXfXfXfXfXfXfXfXfXfXfXfXfXfXfXfXfXfXfXfXfXfXfXfXfXfXfXfXfXfXfXfXfXfXfXfXfX"
};
