/* XPM */
static char *luffy_removebg_preview1674586578[] = {
/* columns rows colors chars-per-pixel */
"50 50 205 2 ",
"   c #000000",
".  c #0B0101",
"X  c #02040B",
"o  c #0A050A",
"O  c #01090A",
"+  c #070904",
"@  c #120200",
"#  c #1C0500",
"$  c #170E02",
"%  c #1E0B00",
"&  c #180D0A",
"*  c #1E1100",
"=  c #00081E",
"-  c #001E1F",
";  c #191714",
":  c #270900",
">  c #300D00",
",  c #2B1200",
"<  c #251B08",
"1  c #341B00",
"2  c #3D2100",
"3  c #352605",
"4  c #362A18",
"5  c #2B271C",
"6  c #000D25",
"7  c #001F2B",
"8  c #001E20",
"9  c #002129",
"0  c #0B233B",
"q  c #312B22",
"w  c #2E3E33",
"e  c #3D3231",
"r  c #222627",
"t  c #441E00",
"y  c #432300",
"u  c #442A05",
"i  c #4C3816",
"p  c #59360D",
"a  c #623F17",
"s  c #473627",
"d  c #483C2E",
"f  c #543F20",
"g  c #523F31",
"h  c #4E3D36",
"j  c #3D4037",
"k  c #5F4212",
"l  c #70450E",
"z  c #6E501A",
"x  c #77551C",
"c  c #674015",
"v  c #45402D",
"b  c #574425",
"n  c #594738",
"m  c #5D5232",
"M  c #4C4A3E",
"N  c #644C25",
"B  c #6C5125",
"V  c #654D37",
"C  c #695031",
"Z  c #77552D",
"A  c #746136",
"S  c #0C2543",
"D  c #1C2F4F",
"F  c #0C314E",
"G  c #003A5D",
"H  c #003355",
"J  c #0F3251",
"K  c #283847",
"L  c #123661",
"P  c #083C63",
"I  c #134D4E",
"U  c #004951",
"Y  c #0D5B5F",
"T  c #3F4541",
"R  c #3B4453",
"E  c #14426C",
"W  c #025D70",
"Q  c #0F5270",
"!  c #274568",
"~  c #345973",
"^  c #066978",
"/  c #13747B",
"(  c #5A5347",
")  c #6A5D49",
"_  c #7E5A40",
"`  c #615851",
"'  c #676352",
"]  c #7A6957",
"[  c #4E5F6F",
"{  c #52687F",
"}  c #45697F",
"|  c #776B64",
" . c #737F75",
".. c #667272",
"X. c #91701F",
"o. c #825D36",
"O. c #8D6B2C",
"+. c #906C32",
"@. c #9D7923",
"#. c #A77735",
"$. c #906D4F",
"%. c #9A7848",
"&. c #9C7A5D",
"*. c #85776B",
"=. c #927F71",
"-. c #877871",
";. c #6F847D",
":. c #AB8539",
">. c #B2813C",
",. c #B58A38",
"<. c #B99035",
"1. c #C6993D",
"2. c #E4AB34",
"3. c #E1A03A",
"4. c #EEB037",
"5. c #F2B73F",
"6. c #9D874A",
"7. c #A58749",
"8. c #B28C47",
"9. c #B79244",
"0. c #B9974B",
"q. c #AC8D54",
"w. c #A38C5C",
"e. c #A78D54",
"r. c #B18757",
"t. c #878577",
"y. c #9D897E",
"u. c #A58467",
"i. c #B28F68",
"p. c #BD906F",
"a. c #B09278",
"s. c #C59F58",
"d. c #D6A549",
"f. c #DAA95E",
"g. c #C7A657",
"h. c #E5A84E",
"j. c #EAAD50",
"k. c #EFB856",
"l. c #C4967E",
"z. c #DFB561",
"x. c #D0A86F",
"c. c #E8B967",
"v. c #F4C154",
"b. c #3D5D83",
"n. c #197082",
"m. c #5F799C",
"M. c #0C909C",
"N. c #26828F",
"B. c #2E8A93",
"V. c #22949F",
"C. c #37959D",
"Z. c #338D96",
"A. c #1897A4",
"S. c #2899A5",
"D. c #3B99A1",
"F. c #33A1AE",
"G. c #25A6B3",
"H. c #4A9197",
"J. c #7D8E9E",
"K. c #62A7AE",
"L. c #6B95AD",
"P. c #7DA7C0",
"I. c #939583",
"U. c #999D95",
"Y. c #AB9887",
"T. c #A89C94",
"R. c #BBA997",
"E. c #ACA497",
"W. c #9CB8BB",
"Q. c #A3AFA3",
"!. c #BAAAA5",
"~. c #B5B5A7",
"^. c #B9BDBE",
"/. c #A3AAB2",
"(. c #C2AB98",
"). c #D7B597",
"_. c #CBAF8E",
"`. c #E5B896",
"'. c #C6BBAA",
"]. c #D0B7B0",
"[. c #D7B8A4",
"{. c #E4BCA9",
"}. c #AECABE",
"|. c #E6C8A6",
" X c #ECD3AF",
".X c #F5D2AE",
"XX c #E3CFB6",
"oX c #E7D4BB",
"OX c #FCD2B5",
"+X c #FDCAAB",
"@X c #87BFC0",
"#X c #82A4C9",
"$X c #8FC0C4",
"%X c #B9D1C4",
"&X c #B8EBEC",
"*X c #D2CCC0",
"=X c #CDDDDD",
"-X c #D0D7CD",
";X c #E3CFC4",
":X c #EDD7C6",
">X c #FBE5CA",
",X c #F9E7D3",
"<X c #C6ECEC",
"1X c #FFF2E0",
"2X c #FFF9E6",
/* pixels */
"                                              X           +                                         ",
"                                                X                                                   ",
"                                X . X                                                               ",
"                                X X                   .   X   X                                     ",
"                                                .   .   X X X                                       ",
"                                    +             .   X                                             ",
"                                  +                                                                 ",
"                                        +                                                           ",
"                                . .       O     +                                                   ",
"                                . X o       O +       .   .   +                                     ",
"                                  o   +   +   . : 2 2 1 # .                                         ",
"                                  X     +   : Z x.c.c.z.g.B @ .                                     ",
"                                X   X . # > 8.c.j.k.4.k.v.c.%.@ .                                   ",
"                                    . @ z s.j.f.4.3.2.4.2.d.x.c .                                   ",
"                                  . * 6.g.,.>.>.#.#.,.<.,.d.d.O.@                                   ",
"                                . . 6.9.X.#.O.t a %.: O.:.#.1.9.% . X                               ",
"                              .   i 0.@.7.u : o.=.Z t i.t %.,.9.k . . o X           X               ",
"                                . N 0.9.N @ V &.[.$.o.).: 3 s.:.7., . . X     +       X             ",
"                                  m 7.x . 4 R. XOX`.x.OX< . O.#.e.i @ . o         X X               ",
"                                + 4 e.z @ -.XX).OX`.{.|.d . z 7.7.b . .       O       X     X       ",
"                                  < q.l > ].,X>X|.|.oX2X| @ p 7.w.k X +                             ",
"                                  + k r.&.[.:X|._. X,X1Xy.: Z %.w.3 @ .   +         X               ",
"                                    . C i._.|.).).OX{.{._.B +.q.A . .         O                     ",
"                                      . y o..X|.`.+XOXl.&.w.6.B $ . @                     X         ",
"                                    O   @ f >X Xl.p.Z t a f <   . .   .                             ",
"                                X +     n :XE.( R.(.R.).# .       .   X X X                         ",
"                                      ) >X;XR 0 { J.W.}.j +         X X     X                       ",
"                                .   ` 1XR.s D L F J 0 K ..; . .         X                           ",
"                                  . ` |   X ! b.~ m.D [ -X$ . @     X     X                         ",
"                                  .   X X 6 m.#XK.L.! 6 *Xn . .                                     ",
"                                        = S ! E Q L L 6 !.n                             X   X       ",
"                                X X   O = H G G G P P 6 T.n   O                                     ",
"                                    o X 9 n./ ^ W W W 7 t.s                                         ",
"                                  +   O U S.A.A.S.S.F.Y ;.s . +                                     ",
"                                +     O / G.M.M.A.A.A.B.%X( +                                       ",
"                                +     8 C.S.A.A.^ S.G.C.}.'                                         ",
"                                  + ; W.K.Z.H.^ 7 B.N.H.J.5                                         ",
"                                .   r =X&X&X$XI 8 @X&X<X-Xv   o                                     ",
"                                . . + j ~.I.Q.w   U.U.~.I.+   .                                     ",
"                                      5 ,XC   . . . @ R.t.  .                                       ",
"                                    +   (.) .   . . . '.v   X                                       ",
"                                      . Y.]   X X . . '.<     X                                     ",
"                                  & h y.Y.*..   o . q T.*.4 .                                       ",
"                                  | R.R.=.| 5       ` *.Y.Y.e X                                     ",
"                                    ; & $             ; $ $ +                                       ",
"                                  O .       +     .     .     O                                     ",
"                                        o       .     X   . +                                       ",
"                                    X X         . X   X                                             ",
"                                                                                                    ",
"                                                                                                    "
};
